<svg width="173" height="83" viewBox="0 0 173 83" fill="none" xmlns="http://www.w3.org/2000/svg">
<mask id="path-1-inside-1_890_34770" fill="white">
<path d="M34.5869 43.1191C34.5869 38.3562 38.448 34.4951 43.2109 34.4951H163.946C168.709 34.4951 172.57 38.3562 172.57 43.1191V74.1653C172.57 78.9282 168.709 82.7892 163.946 82.7892H43.2108C38.448 82.7892 34.5869 78.9282 34.5869 74.1653V43.1191Z"/>
</mask>
<path d="M34.5869 43.1191C34.5869 38.3562 38.448 34.4951 43.2109 34.4951H163.946C168.709 34.4951 172.57 38.3562 172.57 43.1191V74.1653C172.57 78.9282 168.709 82.7892 163.946 82.7892H43.2108C38.448 82.7892 34.5869 78.9282 34.5869 74.1653V43.1191Z" fill="white"/>
<path d="M43.2109 34.4951V35.3575H163.946V34.4951V33.6327H43.2109V34.4951ZM172.57 43.1191H171.708V74.1653H172.57H173.432V43.1191H172.57ZM163.946 82.7892V81.9268H43.2108V82.7892V83.6516H163.946V82.7892ZM34.5869 74.1653H35.4493V43.1191H34.5869H33.7245V74.1653H34.5869ZM43.2108 82.7892V81.9268C38.9243 81.9268 35.4493 78.4519 35.4493 74.1653H34.5869H33.7245C33.7245 79.4044 37.9717 83.6516 43.2108 83.6516V82.7892ZM172.57 74.1653H171.708C171.708 78.4519 168.233 81.9268 163.946 81.9268V82.7892V83.6516C169.185 83.6516 173.432 79.4044 173.432 74.1653H172.57ZM163.946 34.4951V35.3575C168.233 35.3575 171.708 38.8325 171.708 43.1191H172.57H173.432C173.432 37.8799 169.185 33.6327 163.946 33.6327V34.4951ZM43.2109 34.4951V33.6327C37.9717 33.6327 33.7245 37.8799 33.7245 43.1191H34.5869H35.4493C35.4493 38.8325 38.9243 35.3575 43.2109 35.3575V34.4951Z" fill="#E0E0E0" mask="url(#path-1-inside-1_890_34770)"/>
<path fill-rule="evenodd" clip-rule="evenodd" d="M69.6926 52.8581C70.0294 53.1948 70.0294 53.7409 69.6926 54.0777L60.2063 63.564C59.8695 63.9008 59.3235 63.9008 58.9867 63.564L54.6747 59.252C54.3379 58.9153 54.3379 58.3692 54.6747 58.0324C55.0115 57.6956 55.5575 57.6956 55.8943 58.0324L59.5965 61.7346L68.473 52.8581C68.8098 52.5213 69.3559 52.5213 69.6926 52.8581Z" fill="#999999"/>
<path d="M90.5169 63.7668C87.1328 63.7668 84.9907 61.1744 84.9907 58.0387C84.9907 54.9031 87.1328 52.3107 90.5169 52.3107C92.0537 52.3107 93.4352 52.9627 94.4287 53.9872L93.606 54.7634C92.8143 53.9406 91.7277 53.4594 90.5169 53.4594C87.8003 53.4594 86.1238 55.4929 86.1238 58.0387C86.1238 60.6 87.8003 62.6336 90.5169 62.6336C91.7277 62.6336 92.8143 62.1368 93.606 61.3141L94.4287 62.0903C93.4352 63.1148 92.0537 63.7668 90.5169 63.7668ZM101.802 59.203C101.802 57.7283 100.963 56.8745 99.7837 56.8745C98.5574 56.8745 97.4863 58.0232 97.4863 59.5134V63.6426H96.3687V52.1244H97.4863V57.2315C97.8744 56.4243 98.7592 55.7879 99.8303 55.7879C101.429 55.7879 102.919 57.1539 102.919 59.1409V63.6426H101.802V59.203ZM105.031 55.7413H106.149V63.6426H105.031V55.7413ZM104.876 52.8695C104.876 52.4815 105.124 52.171 105.59 52.171C106.04 52.171 106.288 52.4815 106.288 52.8695C106.288 53.2731 106.04 53.5836 105.59 53.5836C105.124 53.5836 104.876 53.2731 104.876 52.8695ZM112.07 62.6801C113.778 62.6801 114.74 61.4073 114.74 59.7463C114.74 58.1164 113.778 56.8435 112.07 56.8435C110.642 56.8435 109.416 58.1164 109.416 59.7463C109.416 61.4073 110.642 62.6801 112.07 62.6801ZM108.283 67.2129V55.7413H109.401V57.4178C109.913 56.3001 111.124 55.7568 112.086 55.7568C114.508 55.7568 115.858 57.6041 115.858 59.7463C115.858 61.9195 114.508 63.7668 112.086 63.7668C111.093 63.7668 109.913 63.0993 109.401 62.0903V67.2129H108.283ZM118.082 61.5004C118.393 62.2145 119.122 62.6336 120.069 62.587C121.435 62.556 121.979 60.8639 120.581 60.4138C120.069 60.2585 119.138 60.0102 118.377 59.5134C117.197 58.7218 117.213 57.5575 117.57 56.8435C118.051 55.8965 119.277 55.6171 119.992 55.6792C120.659 55.7568 121.59 55.9897 122.18 56.7814L121.28 57.4333C120.954 56.9832 120.426 56.8435 119.898 56.7814C119.417 56.7348 118.781 56.9055 118.548 57.3402C118.346 57.7593 118.362 58.1784 118.998 58.5976C119.603 59.0012 120.38 59.1874 120.923 59.3737C123.531 60.212 122.693 63.6271 120.1 63.6891C118.796 63.7512 117.554 63.0682 117.073 61.935L118.082 61.5004Z" fill="#1A1A1A"/>
<path fill-rule="evenodd" clip-rule="evenodd" d="M141.929 53.0107C142.181 52.7581 142.591 52.7581 142.843 53.0107L148.018 58.1851C148.27 58.4377 148.27 58.8472 148.018 59.0998L142.843 64.2742C142.591 64.5268 142.181 64.5268 141.929 64.2742C141.676 64.0216 141.676 63.6121 141.929 63.3595L146.646 58.6425L141.929 53.9254C141.676 53.6728 141.676 53.2633 141.929 53.0107Z" fill="#999999"/>
<rect y="50.9785" width="16.558" height="16.558" rx="8.27899" fill="#333333"/>
<path d="M9.31142 55.2658V63.2909L8.14133 63.2799V56.5132L6.72838 57.2969L6.24268 56.3145L8.15236 55.2658H9.31142Z" fill="white"/>
<path d="M43.8757 55.5783C41.8436 55.5783 40.1962 57.2257 40.1962 59.2578C40.1962 61.29 41.8436 62.9374 43.8757 62.9374C45.9079 62.9374 47.5553 61.29 47.5553 59.2578C47.5553 57.2257 45.9079 55.5783 43.8757 55.5783ZM43.8757 58.5679L16.2791 58.5679L16.2791 59.9477L43.8757 59.9477L43.8757 58.5679Z" fill="#333333"/>
<rect x="71.5166" width="16.558" height="16.558" rx="8.27899" fill="#333333"/>
<path d="M77.0021 11.2858C78.6138 9.74041 80.8105 8.17292 80.8105 6.81516C80.8105 5.90999 80.2365 5.26975 79.4196 5.26975C78.7904 5.26975 78.1612 5.72234 77.8742 6.37362L76.8476 5.92103C77.2891 4.90547 78.3599 4.199 79.4196 4.199C80.9319 4.199 81.9806 5.28079 81.9806 6.81516C81.9806 8.50408 80.1481 10.0053 78.6579 11.2858H82.113V12.3124H77.1125L77.0021 11.2858Z" fill="white"/>
<path d="M83.4752 44.5967C83.4752 42.5645 81.8278 40.9171 79.7957 40.9171C77.7635 40.9171 76.1161 42.5645 76.1161 44.5967C76.1161 46.6288 77.7635 48.2762 79.7957 48.2762C81.8278 48.2762 83.4752 46.6288 83.4752 44.5967ZM80.4856 44.5967L80.4856 16.558L79.1057 16.558L79.1057 44.5967L80.4856 44.5967Z" fill="#333333"/>
<rect x="110.152" width="16.558" height="16.558" rx="8.27899" fill="#333333"/>
<path d="M119.744 8.16188C120.461 8.58135 120.914 9.36509 120.914 10.0384C120.914 11.4072 119.788 12.3786 118.187 12.3786C116.598 12.3786 115.472 11.3852 115.472 9.97222H116.642C116.642 10.778 117.282 11.341 118.187 11.341C119.115 11.341 119.777 10.778 119.777 9.97222C119.777 9.19951 119.126 8.64758 118.209 8.64758H117.635V7.66514H118.22C119.059 7.66514 119.655 7.1684 119.655 6.46193C119.655 5.74441 119.081 5.24767 118.265 5.24767C117.448 5.24767 116.885 5.75545 116.885 6.47296H115.715C115.715 5.13729 116.763 4.21004 118.265 4.21004C119.744 4.21004 120.792 5.11521 120.792 6.39569C120.792 7.01386 120.395 7.74241 119.744 8.16188Z" fill="white"/>
<path d="M122.11 44.5967C122.11 42.5645 120.463 40.9171 118.431 40.9171C116.399 40.9171 114.751 42.5645 114.751 44.5967C114.751 46.6288 116.399 48.2762 118.431 48.2762C120.463 48.2762 122.11 46.6288 122.11 44.5967ZM119.121 44.5967L119.121 16.558L117.741 16.558L117.741 44.5967L119.121 44.5967Z" fill="#333333"/>
<rect x="155.686" width="16.558" height="16.558" rx="8.27899" fill="#333333"/>
<path d="M165.742 4.27627V9.22159H166.757V10.2371H165.742V12.3124H164.571V10.2371H161.116L161.006 9.22159L164.627 4.27627H165.742ZM162.397 9.22159H164.571V6.23011L162.397 9.22159Z" fill="white"/>
<path d="M167.645 44.5967C167.645 42.5645 165.997 40.9171 163.965 40.9171C161.933 40.9171 160.286 42.5645 160.286 44.5967C160.286 46.6288 161.933 48.2762 163.965 48.2762C165.997 48.2762 167.645 46.6288 167.645 44.5967ZM164.655 44.5967L164.655 16.558L163.275 16.558L163.275 44.5967L164.655 44.5967Z" fill="#333333"/>
</svg>
