<svg width="259" height="136" viewBox="0 0 259 136" fill="none" xmlns="http://www.w3.org/2000/svg">
<path d="M23.0686 48.9113V56.7185H27.547V57.5566H22.2065V48.9113H23.0686ZM31.018 56.7783C32.0956 56.7783 33.0655 55.9042 33.0775 54.5631C33.0655 53.234 32.0956 52.3479 31.018 52.3479C29.6888 52.3479 28.9704 53.3058 28.9704 54.5631C28.9704 55.8204 29.6888 56.7783 31.018 56.7783ZM28.1082 54.5631C28.1082 52.8987 29.15 51.4977 31.006 51.4977C31.7125 51.4977 32.5027 51.8689 33.0536 52.755V51.4618H33.9157V57.5566H33.0536V56.3592C32.4788 57.2932 31.7244 57.6405 31.006 57.6405C29.15 57.6405 28.1082 56.2155 28.1082 54.5631ZM38.3603 56.8023C39.7134 56.8023 40.4438 55.8324 40.4438 54.5511C40.4438 53.2819 39.7134 52.3 38.3603 52.3C37.2467 52.3 36.3008 53.2819 36.3008 54.5511C36.3008 55.8324 37.2467 56.8023 38.3603 56.8023ZM35.4387 57.5566V48.6718H36.3008V52.743C36.8636 51.7612 37.7018 51.4618 38.3843 51.4618C40.2642 51.4618 41.306 52.8867 41.306 54.5511C41.306 56.2275 40.2523 57.6524 38.3723 57.6524C37.7018 57.6524 36.8636 57.3651 36.3008 56.3592V57.5566H35.4387ZM46.9494 54.0841C46.8537 53.222 46.4346 52.3 45.1414 52.3C44.0038 52.3 43.2734 52.9107 43.1177 54.0961L46.9494 54.0841ZM42.2316 54.5152C42.2316 52.8388 43.2375 51.4379 45.1054 51.4379C47.0452 51.4379 47.5362 52.9466 47.5961 53.0903C47.9553 54.0722 47.8116 54.9343 47.8116 54.9343H43.1177C43.2734 56.0599 44.0038 56.7304 45.1174 56.7304C46.4944 56.7304 46.8297 55.9761 46.9135 55.8563L47.6559 56.2515C47.6559 56.2515 47.153 57.5926 45.1054 57.5926C43.2375 57.5926 42.2316 56.1796 42.2316 54.5152ZM48.9047 48.6718H49.7668V57.5566H48.9047V48.6718Z" fill="#616161"/>
<path d="M24.4785 68.918H194.589C196.179 68.918 197.469 70.2074 197.469 71.7979V107.199C197.469 108.79 196.179 110.079 194.589 110.079H24.4785C22.8881 110.079 21.5987 108.79 21.5986 107.199V71.7979C21.5988 70.2075 22.8882 68.9181 24.4785 68.918Z" fill="white"/>
<path d="M24.4785 68.918H194.589C196.179 68.918 197.469 70.2074 197.469 71.7979V107.199C197.469 108.79 196.179 110.079 194.589 110.079H24.4785C22.8881 110.079 21.5987 108.79 21.5986 107.199V71.7979C21.5988 70.2075 22.8882 68.9181 24.4785 68.918Z" stroke="#E0E0E0" stroke-width="0.748383"/>
<g clip-path="url(#clip0_1099_71271)">
<path fill-rule="evenodd" clip-rule="evenodd" d="M36.4018 83.5127C34.6356 83.5127 33.1987 84.9496 33.1987 86.7158V92.2837C33.1987 94.0499 34.6356 95.4868 36.4018 95.4868H41.9698C43.736 95.4868 45.1729 94.0499 45.1729 92.2837V86.7158C45.1729 84.9496 43.736 83.5127 41.9698 83.5127H36.4018ZM34.0444 92.4708C34.1417 93.6907 35.1595 94.6486 36.4018 94.6486H41.9698C43.2795 94.6486 44.3347 93.5859 44.3347 92.2837V91.3782L42.112 89.5297C41.7153 89.2004 41.1316 89.2229 40.7649 89.5896L37.9884 92.3661C37.7264 92.628 37.3074 92.628 37.0454 92.3661L36.4467 91.7674C36.1025 91.4231 35.5561 91.3782 35.152 91.6626L34.1267 92.396C34.1267 92.396 34.0669 92.4409 34.0369 92.4708H34.0444ZM35.8405 87.2696C35.8405 87.8833 36.3419 88.3847 36.9556 88.3847C37.5693 88.3847 38.0707 87.8833 38.0707 87.2696C38.0707 86.6559 37.5693 86.1545 36.9556 86.1545C36.3419 86.1545 35.8405 86.6559 35.8405 87.2696Z" fill="#333333"/>
</g>
<path d="M55.9962 89.8037C57.1278 89.8037 58.0303 88.8742 58.0303 87.7696C58.0303 86.6381 57.1143 85.7355 55.9827 85.7355H53.2347L53.2481 89.8037H55.9962ZM52.2782 94.5186V84.7926H56.0232C57.6666 84.7926 58.9733 86.1262 58.9733 87.7696C58.9733 89.3996 57.6666 90.7467 56.0232 90.7467H53.2481V94.5186H52.2782ZM60.211 84.5231H61.1809V94.5186H60.211V84.5231ZM65.6577 93.6429C66.87 93.6429 67.9612 92.6596 67.9746 91.1508C67.9612 89.6556 66.87 88.6587 65.6577 88.6587C64.1624 88.6587 63.3541 89.7364 63.3541 91.1508C63.3541 92.5653 64.1624 93.6429 65.6577 93.6429ZM62.3842 91.1508C62.3842 89.2784 63.5562 87.7023 65.6442 87.7023C66.439 87.7023 67.328 88.1199 67.9477 89.1167V87.6619H68.9176V94.5186H67.9477V93.1715C67.3011 94.2222 66.4524 94.6129 65.6442 94.6129C63.5562 94.6129 62.3842 93.0098 62.3842 91.1508ZM73.5277 93.616C74.2282 93.616 74.8748 93.3466 75.3328 92.8886L76.0603 93.5352C75.4137 94.1818 74.5515 94.5859 73.5816 94.5859C71.3724 94.5859 70.0927 92.9559 70.0927 90.9757C70.0927 89.009 71.3724 87.379 73.5816 87.379C74.5515 87.379 75.4137 87.7831 76.0603 88.4297L75.3328 89.0763C74.8748 88.6183 74.2282 88.3489 73.5277 88.3489C71.9382 88.3489 71.0626 89.5208 71.0626 90.9757C71.0626 92.444 71.9382 93.616 73.5277 93.616ZM82.0826 90.612C81.9749 89.6421 81.5034 88.6048 80.0485 88.6048C78.7688 88.6048 77.9471 89.2918 77.772 90.6255L82.0826 90.612ZM76.7751 91.0969C76.7751 89.211 77.9067 87.6349 80.0081 87.6349C82.1904 87.6349 82.7427 89.3323 82.8101 89.4939C83.2142 90.5985 83.0526 91.5684 83.0526 91.5684H77.772C77.9471 92.8347 78.7688 93.5891 80.0216 93.5891C81.5708 93.5891 81.9479 92.7404 82.0422 92.6057L82.8774 93.0502C82.8774 93.0502 82.3117 94.559 80.0081 94.559C77.9067 94.559 76.7751 92.9694 76.7751 91.0969ZM89.1997 90.6659C89.1997 89.3861 88.4723 88.6452 87.4485 88.6452C86.3843 88.6452 85.4548 89.6421 85.4548 90.9353V94.5186H84.4849V84.5231H85.4548V88.9551C85.7916 88.2546 86.5594 87.7023 87.4889 87.7023C88.8764 87.7023 90.1696 88.8877 90.1696 90.612V94.5186H89.1997V90.6659ZM94.9522 93.6295C96.4609 93.6295 97.2557 92.5249 97.2557 91.0969C97.2557 89.669 96.4609 88.5644 94.9522 88.5644C93.4299 88.5644 92.6621 89.669 92.6621 91.0969C92.6621 92.5249 93.4299 93.6295 94.9522 93.6295ZM91.6922 91.0969C91.6922 89.2245 92.8507 87.6215 94.9522 87.6215C97.0671 87.6215 98.2256 89.2245 98.2256 91.0969C98.2256 92.9694 97.0671 94.5724 94.9522 94.5724C92.8507 94.5724 91.6922 92.9694 91.6922 91.0969ZM99.4239 84.5231H100.394V94.5186H99.4239V84.5231ZM104.871 94.6263C102.783 94.6263 101.597 93.0233 101.597 91.1374C101.597 89.2649 102.783 87.6484 104.871 87.6484C105.746 87.6484 106.662 88.0929 107.228 89.1167V84.5231H108.198V94.5186H107.228V93.158C106.649 94.1818 105.746 94.6263 104.871 94.6263ZM102.567 91.1374C102.567 92.5787 103.389 93.6564 104.911 93.6564C106.15 93.6564 107.228 92.5787 107.228 91.1374C107.228 89.7094 106.15 88.6183 104.911 88.6183C103.389 88.6183 102.567 89.7094 102.567 91.1374ZM114.83 90.612C114.722 89.6421 114.251 88.6048 112.796 88.6048C111.516 88.6048 110.695 89.2918 110.52 90.6255L114.83 90.612ZM109.523 91.0969C109.523 89.211 110.654 87.6349 112.756 87.6349C114.938 87.6349 115.49 89.3323 115.558 89.4939C115.962 90.5985 115.8 91.5684 115.8 91.5684H110.52C110.695 92.8347 111.516 93.5891 112.769 93.5891C114.318 93.5891 114.696 92.7404 114.79 92.6057L115.625 93.0502C115.625 93.0502 115.059 94.559 112.756 94.559C110.654 94.559 109.523 92.9694 109.523 91.0969ZM118.054 89.1033C118.445 88.2007 119.563 87.5945 120.492 87.5945V88.5914C119.24 88.5914 118.054 89.898 118.054 90.9892V94.5186H117.084V87.6619H118.054V89.1033Z" fill="#BDBDBD"/>
<rect width="17.9612" height="17.9612" transform="translate(170.901 80.5186)" fill="#FF0000" fill-opacity="0.1"/>
<path fill-rule="evenodd" clip-rule="evenodd" d="M174.862 86.7241C175.155 86.4318 175.628 86.4318 175.921 86.7241L179.882 90.6852L183.843 86.7241C184.135 86.4318 184.609 86.4318 184.901 86.7241C185.193 87.0163 185.193 87.4902 184.901 87.7825L180.411 92.2728C180.119 92.565 179.645 92.565 179.353 92.2728L174.862 87.7825C174.57 87.4902 174.57 87.0163 174.862 86.7241Z" fill="#616161"/>
<rect width="176.618" height="17.9612" transform="translate(21.2246 116.44)" fill="#FF0000" fill-opacity="0.1"/>
<path fill-rule="evenodd" clip-rule="evenodd" d="M36.9634 120.721C37.1826 120.94 37.1826 121.296 36.9634 121.515L28.357 130.121C28.1378 130.34 27.7824 130.34 27.5632 130.121L23.4471 126.005C23.2279 125.786 23.2279 125.431 23.4471 125.211C23.6663 124.992 24.0217 124.992 24.2409 125.211L27.9601 128.931L36.1696 120.721C36.3888 120.502 36.7442 120.502 36.9634 120.721Z" fill="#999999"/>
<path d="M48.5494 121.856V129.421H47.7951V125.901H43.8137V129.421H43.0593V121.856H43.8137V125.167H47.7951V121.856H48.5494ZM53.9024 126.382C53.8185 125.628 53.4518 124.821 52.3203 124.821C51.3249 124.821 50.6858 125.356 50.5496 126.393L53.9024 126.382ZM49.7743 126.76C49.7743 125.293 50.6544 124.067 52.2888 124.067C53.9862 124.067 54.4157 125.387 54.4681 125.513C54.7825 126.372 54.6567 127.126 54.6567 127.126H50.5496C50.6858 128.111 51.3249 128.698 52.2993 128.698C53.5042 128.698 53.7976 128.038 53.8709 127.933L54.5205 128.279C54.5205 128.279 54.0805 129.452 52.2888 129.452C50.6544 129.452 49.7743 128.216 49.7743 126.76ZM55.5992 121.647H56.3535V129.421H55.5992V121.647ZM60.2876 128.771C61.4401 128.771 62.0897 127.912 62.0897 126.791C62.0897 125.691 61.4401 124.832 60.2876 124.832C59.3237 124.832 58.496 125.691 58.496 126.791C58.496 127.912 59.3237 128.771 60.2876 128.771ZM57.7311 131.831V124.088H58.4855V125.219C58.8312 124.465 59.6485 124.098 60.2981 124.098C61.9325 124.098 62.8441 125.345 62.8441 126.791C62.8441 128.258 61.9325 129.505 60.2981 129.505C59.6275 129.505 58.8312 129.054 58.4855 128.373V131.831H57.7311ZM73.3024 126.152C73.3024 125.303 72.789 124.821 72.0346 124.821C71.3326 124.821 70.6097 125.481 70.6097 126.152V129.421H69.8553V126.152C69.8553 125.481 69.4257 124.821 68.6085 124.821C67.8646 124.821 67.1731 125.481 67.1731 126.236V129.421H66.4187V124.088H67.1731V125.01C67.5084 124.434 68.0008 124.088 68.6399 124.088C69.4153 124.088 69.9287 124.423 70.3058 125.157C70.6935 124.612 71.2279 124.088 72.066 124.088C73.1557 124.088 74.0567 124.968 74.0567 126.068V129.421H73.3024V126.152ZM79.2582 126.382C79.1744 125.628 78.8077 124.821 77.6761 124.821C76.6808 124.821 76.0417 125.356 75.9055 126.393L79.2582 126.382ZM75.1301 126.76C75.1301 125.293 76.0102 124.067 77.6447 124.067C79.342 124.067 79.7716 125.387 79.824 125.513C80.1383 126.372 80.0126 127.126 80.0126 127.126H75.9055C76.0417 128.111 76.6808 128.698 77.6552 128.698C78.8601 128.698 79.1535 128.038 79.2268 127.933L79.8764 128.279C79.8764 128.279 79.4363 129.452 77.6447 129.452C76.0102 129.452 75.1301 128.216 75.1301 126.76ZM81.5208 127.975C81.7304 128.457 82.2228 128.74 82.8619 128.708C83.7839 128.687 84.1506 127.545 83.2077 127.242C82.8619 127.137 82.2333 126.969 81.7199 126.634C80.9236 126.1 80.9341 125.314 81.1751 124.832C81.4999 124.193 82.3276 124.004 82.8095 124.046C83.2601 124.098 83.8887 124.256 84.2868 124.79L83.6792 125.23C83.4591 124.926 83.1029 124.832 82.7467 124.79C82.4219 124.758 81.9923 124.874 81.8351 125.167C81.6989 125.45 81.7094 125.733 82.139 126.016C82.5476 126.288 83.0715 126.414 83.4382 126.54C85.1984 127.105 84.6326 129.41 82.8829 129.452C82.0028 129.494 81.1646 129.033 80.8398 128.268L81.5208 127.975ZM85.8594 127.975C86.0689 128.457 86.5614 128.74 87.2005 128.708C88.1225 128.687 88.4892 127.545 87.5462 127.242C87.2005 127.137 86.5719 126.969 86.0585 126.634C85.2622 126.1 85.2727 125.314 85.5136 124.832C85.8384 124.193 86.6661 124.004 87.1481 124.046C87.5986 124.098 88.2273 124.256 88.6254 124.79L88.0177 125.23C87.7977 124.926 87.4415 124.832 87.0852 124.79C86.7604 124.758 86.3309 124.874 86.1737 125.167C86.0375 125.45 86.048 125.733 86.4776 126.016C86.8862 126.288 87.41 126.414 87.7768 126.54C89.5369 127.105 88.9712 129.41 87.2214 129.452C86.3414 129.494 85.5032 129.033 85.1784 128.268L85.8594 127.975ZM92.2778 128.74C93.2208 128.74 94.0694 127.975 94.0799 126.802C94.0694 125.639 93.2208 124.863 92.2778 124.863C91.1148 124.863 90.4862 125.701 90.4862 126.802C90.4862 127.902 91.1148 128.74 92.2778 128.74ZM89.7318 126.802C89.7318 125.345 90.6433 124.119 92.2673 124.119C92.8855 124.119 93.577 124.444 94.059 125.219V124.088H94.8133V129.421H94.059V128.373C93.556 129.19 92.896 129.494 92.2673 129.494C90.6433 129.494 89.7318 128.247 89.7318 126.802ZM98.4683 128.761C99.4637 128.761 100.249 127.891 100.249 126.802C100.249 125.733 99.4532 124.863 98.4683 124.863C97.3787 124.863 96.6767 125.628 96.6767 126.802C96.6767 127.996 97.3787 128.761 98.4683 128.761ZM95.9223 126.802C95.9223 125.219 96.9596 124.13 98.4579 124.13C99.2541 124.13 99.9352 124.549 100.249 125.23V124.088H101.004V129.159C100.983 130.856 99.998 131.82 98.3007 131.82C97.452 131.82 96.7081 131.38 96.1633 130.563L96.8024 130.154C97.1901 130.762 97.693 131.066 98.3007 131.066C99.5999 131.066 100.239 130.437 100.249 129.148V128.352C99.8828 129.012 99.1389 129.494 98.4579 129.494C96.9596 129.494 95.9223 128.394 95.9223 126.802ZM106.026 126.382C105.942 125.628 105.576 124.821 104.444 124.821C103.449 124.821 102.81 125.356 102.673 126.393L106.026 126.382ZM101.898 126.76C101.898 125.293 102.778 124.067 104.413 124.067C106.11 124.067 106.539 125.387 106.592 125.513C106.906 126.372 106.78 127.126 106.78 127.126H102.673C102.81 128.111 103.449 128.698 104.423 128.698C105.628 128.698 105.921 128.038 105.995 127.933L106.644 128.279C106.644 128.279 106.204 129.452 104.413 129.452C102.778 129.452 101.898 128.216 101.898 126.76Z" fill="#616161"/>
<rect y="69.3936" width="16.558" height="16.558" rx="8.27899" fill="#333333"/>
<path d="M9.44364 73.6588V81.717L8.119 81.706V75.1159L6.67294 75.7782L6.1762 74.564L8.119 73.6588H9.44364Z" fill="white"/>
<path d="M43.876 73.9933C41.8438 73.9933 40.1964 75.6407 40.1964 77.6729C40.1964 79.705 41.8438 81.3524 43.876 81.3524C45.9081 81.3524 47.5555 79.705 47.5555 77.6729C47.5555 75.6407 45.9081 73.9933 43.876 73.9933ZM43.876 77.6729L43.876 76.9829L16.2793 76.9829L16.2793 77.6729L16.2793 78.3628L43.876 78.3628L43.876 77.6729Z" fill="#333333"/>
<rect y="90.0908" width="16.558" height="16.558" rx="8.27899" fill="#333333"/>
<path d="M5.46321 101.09C7.08589 99.5332 9.20531 98.2858 9.20531 96.9722C9.20531 96.0119 8.62026 95.6034 7.89171 95.6034C7.41705 95.6034 6.82096 95.78 6.45668 96.5748L5.25347 96.0339C5.88267 94.632 7.1742 94.2788 7.89171 94.2788C9.13908 94.2788 10.5299 95.2502 10.5299 96.9722C10.5299 98.6391 8.90727 99.9306 7.49432 101.09H10.6514V102.414H5.46321V101.09Z" fill="white"/>
<path d="M55.1924 94.6906C53.1602 94.6906 51.5128 96.338 51.5128 98.3701C51.5128 100.402 53.1602 102.05 55.1924 102.05C57.2245 102.05 58.8719 100.402 58.8719 98.3701C58.8719 96.338 57.2245 94.6906 55.1924 94.6906ZM55.1924 98.3701V97.6802H16.5571V98.3701V99.06H55.1924V98.3701Z" fill="#333333"/>
<rect x="241.47" y="81.8115" width="16.558" height="16.558" rx="8.27899" fill="#333333"/>
<path d="M248.335 90.6136L247.01 90.5585L247.187 86.0768H251.713V87.4014H248.456L248.401 89.002C248.743 88.8585 249.119 88.7812 249.505 88.7812C251.006 88.7812 252.375 89.9072 252.375 91.5078C252.375 93.0311 250.984 94.2454 249.505 94.2454C248.247 94.2454 247.021 93.3512 246.723 92.0928L248.015 91.7948C248.18 92.4902 248.754 92.9207 249.505 92.9207C250.399 92.9207 251.05 92.3357 251.05 91.5078C251.05 90.6247 250.432 90.1059 249.505 90.1059C248.997 90.1059 248.655 90.2604 248.335 90.6136Z" fill="white"/>
<path d="M213.873 93.7704C215.905 93.7704 217.553 92.123 217.553 90.0908C217.553 88.0587 215.905 86.4113 213.873 86.4113C211.841 86.4113 210.193 88.0587 210.193 90.0908C210.193 92.123 211.841 93.7704 213.873 93.7704ZM213.873 90.0908L213.873 90.7807L241.912 90.7807L241.912 90.0908L241.912 89.4009L213.873 89.4009L213.873 90.0908Z" fill="#333333"/>
<rect x="241.47" y="119.067" width="16.558" height="16.558" rx="8.27899" fill="#333333"/>
<path d="M249.549 130.143C250.454 130.143 251.083 129.625 251.083 128.764C251.083 127.947 250.443 127.373 249.549 127.373C248.666 127.373 248.048 127.947 248.048 128.764C248.048 129.625 248.644 130.143 249.549 130.143ZM246.723 128.764C246.723 128.333 246.834 127.925 247.032 127.56H247.021L249.417 123.299H250.929L249.372 126.059C249.439 126.048 249.494 126.048 249.56 126.048C251.028 126.048 252.408 127.251 252.408 128.764C252.408 130.342 251.039 131.468 249.56 131.468C248.092 131.468 246.723 130.342 246.723 128.764Z" fill="white"/>
<path d="M213.873 131.026C215.905 131.026 217.553 129.379 217.553 127.347C217.553 125.315 215.905 123.667 213.873 123.667C211.841 123.667 210.193 125.315 210.193 127.347C210.193 129.379 211.841 131.026 213.873 131.026ZM213.873 127.347L213.873 128.037L241.912 128.037L241.912 127.347L241.912 126.657L213.873 126.657L213.873 127.347Z" fill="#333333"/>
<rect x="53.8135" y="0.401367" width="16.558" height="16.558" rx="8.27899" fill="#333333"/>
<path d="M63.372 8.55221C64.0785 8.96064 64.6304 9.64503 64.6304 10.4509C64.6304 11.7976 63.5266 12.7911 61.8376 12.7911C60.1598 12.7911 59.0669 11.7976 59.0669 10.3515H60.3916C60.3916 10.9476 60.8111 11.5106 61.8376 11.5106C62.8753 11.5106 63.3499 10.9476 63.3499 10.3515C63.3499 9.74438 62.9746 9.14829 61.8597 9.14829H61.2968V7.96716H61.8818C62.798 7.96716 63.2285 7.42626 63.2285 6.88537C63.2285 6.36655 62.8201 5.88085 61.9149 5.88085C60.9987 5.88085 60.6344 6.36655 60.6344 6.89641H59.3098C59.3098 5.52762 60.3695 4.60037 61.9149 4.60037C63.4383 4.60037 64.498 5.52762 64.498 6.79706C64.498 7.53665 64.0233 8.15482 63.372 8.55221Z" fill="white"/>
<path d="M65.7718 44.998C65.7718 42.9659 64.1244 41.3185 62.0923 41.3185C60.0601 41.3185 58.4127 42.9659 58.4127 44.998C58.4127 47.0302 60.0601 48.6776 62.0923 48.6776C64.1244 48.6776 65.7718 47.0302 65.7718 44.998ZM62.0923 44.998L62.7822 44.998L62.7822 16.9594L62.0923 16.9594L61.4024 16.9594L61.4024 44.998L62.0923 44.998Z" fill="#333333"/>
<rect x="126.944" y="0.401367" width="16.558" height="16.558" rx="8.27899" fill="#333333"/>
<path d="M137.066 4.6666V9.5788H138.015V10.8814H137.066V12.7248H135.752V10.8814H132.198V9.5788L135.807 4.6666H137.066ZM133.743 9.5788H135.752V6.84121L133.743 9.5788Z" fill="white"/>
<path d="M138.902 83.1914C138.902 81.1592 137.255 79.5119 135.223 79.5119C133.19 79.5119 131.543 81.1592 131.543 83.1914C131.543 85.2236 133.19 86.871 135.223 86.871C137.255 86.871 138.902 85.2236 138.902 83.1914ZM135.223 83.1914L135.913 83.1914L135.913 16.9595L135.223 16.9595L134.533 16.9595L134.533 83.1914L135.223 83.1914Z" fill="#333333"/>
<defs>
<clipPath id="clip0_1099_71271">
<rect width="11.9741" height="11.9741" fill="white" transform="translate(33.1987 83.5127)"/>
</clipPath>
</defs>
</svg>
