<svg width="259" height="136" viewBox="0 0 259 136" fill="none" xmlns="http://www.w3.org/2000/svg">
<path d="M23.0686 49.8869V57.694H27.547V58.5322H22.2065V49.8869H23.0686ZM31.018 57.7539C32.0956 57.7539 33.0655 56.8798 33.0775 55.5387C33.0655 54.2096 32.0956 53.3235 31.018 53.3235C29.6888 53.3235 28.9704 54.2814 28.9704 55.5387C28.9704 56.796 29.6888 57.7539 31.018 57.7539ZM28.1082 55.5387C28.1082 53.8743 29.15 52.4733 31.006 52.4733C31.7125 52.4733 32.5027 52.8445 33.0536 53.7306V52.4374H33.9157V58.5322H33.0536V57.3348C32.4788 58.2688 31.7244 58.616 31.006 58.616C29.15 58.616 28.1082 57.1911 28.1082 55.5387ZM38.3603 57.7779C39.7134 57.7779 40.4438 56.808 40.4438 55.5267C40.4438 54.2575 39.7134 53.2756 38.3603 53.2756C37.2467 53.2756 36.3008 54.2575 36.3008 55.5267C36.3008 56.808 37.2467 57.7779 38.3603 57.7779ZM35.4387 58.5322V49.6474H36.3008V53.7186C36.8636 52.7367 37.7018 52.4374 38.3843 52.4374C40.2642 52.4374 41.306 53.8623 41.306 55.5267C41.306 57.2031 40.2523 58.628 38.3723 58.628C37.7018 58.628 36.8636 58.3406 36.3008 57.3348V58.5322H35.4387ZM46.9494 55.0597C46.8537 54.1976 46.4346 53.2756 45.1414 53.2756C44.0038 53.2756 43.2734 53.8863 43.1177 55.0717L46.9494 55.0597ZM42.2316 55.4908C42.2316 53.8144 43.2375 52.4134 45.1054 52.4134C47.0452 52.4134 47.5362 53.9222 47.5961 54.0659C47.9553 55.0478 47.8116 55.9099 47.8116 55.9099H43.1177C43.2734 57.0355 44.0038 57.706 45.1174 57.706C46.4944 57.706 46.8297 56.9516 46.9135 56.8319L47.6559 57.227C47.6559 57.227 47.153 58.5681 45.1054 58.5681C43.2375 58.5681 42.2316 57.1552 42.2316 55.4908ZM48.9047 49.6474H49.7668V58.5322H48.9047V49.6474Z" fill="#616161"/>
<mask id="path-2-inside-1_957_52629" fill="white">
<path d="M21.2246 73.8585C21.2246 71.4622 23.1672 69.5195 25.5636 69.5195H193.504C195.9 69.5195 197.843 71.4622 197.843 73.8585V107.09C197.843 109.486 195.9 111.429 193.504 111.429H25.5636C23.1672 111.429 21.2246 109.486 21.2246 107.09V73.8585Z"/>
</mask>
<path d="M21.2246 73.8585C21.2246 71.4622 23.1672 69.5195 25.5636 69.5195H193.504C195.9 69.5195 197.843 71.4622 197.843 73.8585V107.09C197.843 109.486 195.9 111.429 193.504 111.429H25.5636C23.1672 111.429 21.2246 109.486 21.2246 107.09V73.8585Z" fill="white"/>
<path d="M25.5636 69.5195V70.2679H193.504V69.5195V68.7711H25.5636V69.5195ZM197.843 73.8585H197.095V107.09H197.843H198.591V73.8585H197.843ZM193.504 111.429V110.681H25.5636V111.429V112.177H193.504V111.429ZM21.2246 107.09H21.973V73.8585H21.2246H20.4762V107.09H21.2246ZM25.5636 111.429V110.681C23.5806 110.681 21.973 109.073 21.973 107.09H21.2246H20.4762C20.4762 109.9 22.7539 112.177 25.5636 112.177V111.429ZM197.843 107.09H197.095C197.095 109.073 195.487 110.681 193.504 110.681V111.429V112.177C196.314 112.177 198.591 109.9 198.591 107.09H197.843ZM193.504 69.5195V70.2679C195.487 70.2679 197.095 71.8755 197.095 73.8585H197.843H198.591C198.591 71.0488 196.314 68.7711 193.504 68.7711V69.5195ZM25.5636 69.5195V68.7711C22.7539 68.7711 20.4762 71.0488 20.4762 73.8585H21.2246H21.973C21.973 71.8755 23.5806 70.2679 25.5636 70.2679V69.5195Z" fill="#E0E0E0" mask="url(#path-2-inside-1_957_52629)"/>
<rect width="17.9612" height="17.9612" transform="translate(30.2053 81.4941)" fill="#FF0000" fill-opacity="0.1"/>
<g clip-path="url(#clip0_957_52629)">
<path fill-rule="evenodd" clip-rule="evenodd" d="M36.4021 84.4883C34.6359 84.4883 33.199 85.9252 33.199 87.6914V93.2593C33.199 95.0255 34.6359 96.4624 36.4021 96.4624H41.97C43.7362 96.4624 45.1731 95.0255 45.1731 93.2593V87.6914C45.1731 85.9252 43.7362 84.4883 41.97 84.4883H36.4021ZM34.0446 93.4464C34.1419 94.6663 35.1597 95.6242 36.4021 95.6242H41.97C43.2797 95.6242 44.3349 94.5615 44.3349 93.2593V92.3538L42.1122 90.5053C41.7156 90.176 41.1318 90.1984 40.7651 90.5652L37.9886 93.3417C37.7267 93.6036 37.3076 93.6036 37.0457 93.3417L36.447 92.743C36.1027 92.3987 35.5564 92.3538 35.1523 92.6382L34.127 93.3716C34.127 93.3716 34.0671 93.4165 34.0372 93.4464H34.0446ZM35.8408 88.2452C35.8408 88.8588 36.3422 89.3603 36.9559 89.3603C37.5695 89.3603 38.071 88.8588 38.071 88.2452C38.071 87.6315 37.5695 87.1301 36.9559 87.1301C36.3422 87.1301 35.8408 87.6315 35.8408 88.2452Z" fill="#333333"/>
</g>
<path d="M55.4975 94.6589C56.9793 94.6589 57.8145 93.5543 57.8145 92.1129C57.8145 90.6985 56.9793 89.5939 55.4975 89.5939C54.2582 89.5939 53.194 90.6985 53.194 92.1129C53.194 93.5543 54.2582 94.6589 55.4975 94.6589ZM52.2106 98.5924V88.6375H53.1805V90.0923C53.6251 89.1224 54.6758 88.6509 55.511 88.6509C57.6125 88.6509 58.7844 90.254 58.7844 92.1129C58.7844 93.9989 57.6125 95.6019 55.511 95.6019C54.6489 95.6019 53.6251 95.0227 53.1805 94.1471V98.5924H52.2106ZM59.9871 85.4987H60.957V95.4941H59.9871V85.4987ZM65.4338 94.6185C66.6462 94.6185 67.7373 93.6352 67.7508 92.1264C67.7373 90.6311 66.6462 89.6343 65.4338 89.6343C63.9385 89.6343 63.1302 90.712 63.1302 92.1264C63.1302 93.5409 63.9385 94.6185 65.4338 94.6185ZM62.1603 92.1264C62.1603 90.254 63.3323 88.6779 65.4203 88.6779C66.2151 88.6779 67.1042 89.0955 67.7238 90.0923V88.6375H68.6937V95.4941H67.7238V94.1471C67.0772 95.1978 66.2286 95.5884 65.4203 95.5884C63.3323 95.5884 62.1603 93.9854 62.1603 92.1264ZM73.3039 94.5916C74.0044 94.5916 74.651 94.3222 75.109 93.8642L75.8364 94.5108C75.1898 95.1574 74.3277 95.5615 73.3577 95.5615C71.1485 95.5615 69.8688 93.9315 69.8688 91.9513C69.8688 89.9845 71.1485 88.3546 73.3577 88.3546C74.3277 88.3546 75.1898 88.7587 75.8364 89.4053L75.109 90.0519C74.651 89.5939 74.0044 89.3245 73.3039 89.3245C71.7143 89.3245 70.8387 90.4964 70.8387 91.9513C70.8387 93.4196 71.7143 94.5916 73.3039 94.5916ZM81.8588 91.5876C81.751 90.6177 81.2795 89.5804 79.8247 89.5804C78.5449 89.5804 77.7232 90.2674 77.5481 91.6011L81.8588 91.5876ZM76.5512 92.0725C76.5512 90.1866 77.6828 88.6105 79.7842 88.6105C81.9665 88.6105 82.5188 90.3078 82.5862 90.4695C82.9903 91.5741 82.8287 92.544 82.8287 92.544H77.5481C77.7232 93.8103 78.5449 94.5646 79.7977 94.5646C81.3469 94.5646 81.7241 93.716 81.8184 93.5813L82.6535 94.0258C82.6535 94.0258 82.0878 95.5346 79.7842 95.5346C77.6828 95.5346 76.5512 93.945 76.5512 92.0725ZM88.9759 91.6415C88.9759 90.3617 88.2484 89.6208 87.2246 89.6208C86.1604 89.6208 85.2309 90.6177 85.2309 91.9109V95.4941H84.261V85.4987H85.2309V89.9307C85.5677 89.2302 86.3356 88.6779 87.265 88.6779C88.6526 88.6779 89.9458 89.8633 89.9458 91.5876V95.4941H88.9759V91.6415ZM94.7283 94.6051C96.237 94.6051 97.0318 93.5004 97.0318 92.0725C97.0318 90.6446 96.237 89.54 94.7283 89.54C93.2061 89.54 92.4382 90.6446 92.4382 92.0725C92.4382 93.5004 93.2061 94.6051 94.7283 94.6051ZM91.4683 92.0725C91.4683 90.2001 92.6268 88.597 94.7283 88.597C96.8432 88.597 98.0017 90.2001 98.0017 92.0725C98.0017 93.945 96.8432 95.548 94.7283 95.548C92.6268 95.548 91.4683 93.945 91.4683 92.0725ZM99.2 85.4987H100.17V95.4941H99.2V85.4987ZM104.647 95.6019C102.559 95.6019 101.373 93.9989 101.373 92.1129C101.373 90.2405 102.559 88.624 104.647 88.624C105.522 88.624 106.438 89.0685 107.004 90.0923V85.4987H107.974V95.4941H107.004V94.1336C106.425 95.1574 105.522 95.6019 104.647 95.6019ZM102.343 92.1129C102.343 93.5543 103.165 94.632 104.687 94.632C105.926 94.632 107.004 93.5543 107.004 92.1129C107.004 90.685 105.926 89.5939 104.687 89.5939C103.165 89.5939 102.343 90.685 102.343 92.1129ZM114.606 91.5876C114.499 90.6177 114.027 89.5804 112.572 89.5804C111.293 89.5804 110.471 90.2674 110.296 91.6011L114.606 91.5876ZM109.299 92.0725C109.299 90.1866 110.43 88.6105 112.532 88.6105C114.714 88.6105 115.266 90.3078 115.334 90.4695C115.738 91.5741 115.576 92.544 115.576 92.544H110.296C110.471 93.8103 111.293 94.5646 112.545 94.5646C114.094 94.5646 114.472 93.716 114.566 93.5813L115.401 94.0258C115.401 94.0258 114.835 95.5346 112.532 95.5346C110.43 95.5346 109.299 93.945 109.299 92.0725ZM117.83 90.0788C118.221 89.1763 119.339 88.5701 120.269 88.5701V89.5669C119.016 89.5669 117.83 90.8736 117.83 91.9648V95.4941H116.86V88.6375H117.83V90.0788Z" fill="#BDBDBD"/>
<rect width="17.9612" height="17.9612" transform="translate(170.901 81.4941)" fill="#FF0000" fill-opacity="0.2"/>
<path d="M179.882 82.9902C184.015 82.9902 187.366 86.3406 187.366 90.4736C187.366 94.6068 184.015 97.958 179.882 97.958C175.749 97.9578 172.398 94.6067 172.398 90.4736C172.398 86.3408 175.749 82.9905 179.882 82.9902ZM182.523 87.833C182.331 87.6414 182.036 87.617 181.818 87.7607L181.73 87.833L179.882 89.6816L178.033 87.833L177.945 87.7607C177.727 87.6172 177.432 87.6413 177.24 87.833C177.049 88.0247 177.024 88.3204 177.168 88.5381L177.24 88.626L179.089 90.4746L177.24 92.3232C177.021 92.5424 177.021 92.8971 177.24 93.1162C177.459 93.335 177.814 93.335 178.033 93.1162L179.882 91.2676L181.73 93.1162L181.818 93.1885C182.036 93.3319 182.332 93.3076 182.523 93.1162C182.715 92.9245 182.739 92.629 182.595 92.4111L182.523 92.3232L180.675 90.4746L182.523 88.626L182.595 88.5381C182.739 88.3203 182.715 88.0248 182.523 87.833Z" fill="#999999"/>
<rect width="176.618" height="17.9612" transform="translate(21.2246 117.416)" fill="#FF0000" fill-opacity="0.1"/>
<path fill-rule="evenodd" clip-rule="evenodd" d="M36.9634 121.697C37.1826 121.916 37.1826 122.271 36.9634 122.49L28.357 131.097C28.1378 131.316 27.7824 131.316 27.5632 131.097L23.4471 126.981C23.2279 126.762 23.2279 126.406 23.4471 126.187C23.6663 125.968 24.0217 125.968 24.2409 126.187L27.9601 129.906L36.1696 121.697C36.3888 121.477 36.7442 121.477 36.9634 121.697Z" fill="#999999"/>
<path d="M48.5497 122.832V130.396H47.7953V126.876H43.8139V130.396H43.0595V122.832H43.8139V126.143H47.7953V122.832H48.5497ZM53.9026 127.358C53.8188 126.604 53.4521 125.797 52.3205 125.797C51.3252 125.797 50.686 126.331 50.5498 127.369L53.9026 127.358ZM49.7745 127.735C49.7745 126.268 50.6546 125.043 52.2891 125.043C53.9864 125.043 54.416 126.363 54.4684 126.488C54.7827 127.348 54.657 128.102 54.657 128.102H50.5498C50.686 129.087 51.3252 129.674 52.2996 129.674C53.5045 129.674 53.7978 129.013 53.8712 128.909L54.5208 129.254C54.5208 129.254 54.0807 130.428 52.2891 130.428C50.6546 130.428 49.7745 129.192 49.7745 127.735ZM55.5994 122.622H56.3538V130.396H55.5994V122.622ZM60.2878 129.747C61.4403 129.747 62.0899 128.888 62.0899 127.767C62.0899 126.667 61.4403 125.807 60.2878 125.807C59.3239 125.807 58.4962 126.667 58.4962 127.767C58.4962 128.888 59.3239 129.747 60.2878 129.747ZM57.7314 132.806V125.064H58.4857V126.195C58.8315 125.441 59.6487 125.074 60.2983 125.074C61.9328 125.074 62.8443 126.321 62.8443 127.767C62.8443 129.233 61.9328 130.48 60.2983 130.48C59.6278 130.48 58.8315 130.03 58.4857 129.349V132.806H57.7314ZM73.3026 127.128C73.3026 126.279 72.7892 125.797 72.0349 125.797C71.3329 125.797 70.6099 126.457 70.6099 127.128V130.396H69.8556V127.128C69.8556 126.457 69.426 125.797 68.6088 125.797C67.8649 125.797 67.1734 126.457 67.1734 127.211V130.396H66.419V125.064H67.1734V125.986C67.5086 125.409 68.0011 125.064 68.6402 125.064C69.4155 125.064 69.9289 125.399 70.3061 126.132C70.6938 125.587 71.2281 125.064 72.0663 125.064C73.1559 125.064 74.057 125.944 74.057 127.044V130.396H73.3026V127.128ZM79.2585 127.358C79.1747 126.604 78.8079 125.797 77.6764 125.797C76.681 125.797 76.0419 126.331 75.9057 127.369L79.2585 127.358ZM75.1304 127.735C75.1304 126.268 76.0105 125.043 77.645 125.043C79.3423 125.043 79.7719 126.363 79.8243 126.488C80.1386 127.348 80.0128 128.102 80.0128 128.102H75.9057C76.0419 129.087 76.681 129.674 77.6554 129.674C78.8603 129.674 79.1537 129.013 79.227 128.909L79.8766 129.254C79.8766 129.254 79.4366 130.428 77.645 130.428C76.0105 130.428 75.1304 129.192 75.1304 127.735ZM81.5211 128.951C81.7306 129.433 82.223 129.715 82.8622 129.684C83.7842 129.663 84.1509 128.521 83.2079 128.217C82.8622 128.112 82.2335 127.945 81.7201 127.61C80.9238 127.075 80.9343 126.289 81.1753 125.807C81.5001 125.168 82.3278 124.98 82.8098 125.022C83.2603 125.074 83.8889 125.231 84.2871 125.765L83.6794 126.206C83.4594 125.902 83.1031 125.807 82.7469 125.765C82.4221 125.734 81.9925 125.849 81.8354 126.143C81.6992 126.426 81.7097 126.708 82.1392 126.991C82.5478 127.264 83.0717 127.389 83.4384 127.515C85.1986 128.081 84.6328 130.386 82.8831 130.428C82.003 130.47 81.1648 130.009 80.84 129.244L81.5211 128.951ZM85.8596 128.951C86.0692 129.433 86.5616 129.715 87.2007 129.684C88.1227 129.663 88.4895 128.521 87.5465 128.217C87.2007 128.112 86.5721 127.945 86.0587 127.61C85.2624 127.075 85.2729 126.289 85.5139 125.807C85.8387 125.168 86.6664 124.98 87.1484 125.022C87.5989 125.074 88.2275 125.231 88.6257 125.765L88.018 126.206C87.7979 125.902 87.4417 125.807 87.0855 125.765C86.7607 125.734 86.3311 125.849 86.174 126.143C86.0378 126.426 86.0482 126.708 86.4778 126.991C86.8864 127.264 87.4103 127.389 87.777 127.515C89.5372 128.081 88.9714 130.386 87.2217 130.428C86.3416 130.47 85.5034 130.009 85.1786 129.244L85.8596 128.951ZM92.2781 129.715C93.221 129.715 94.0697 128.951 94.0802 127.777C94.0697 126.614 93.221 125.839 92.2781 125.839C91.1151 125.839 90.4864 126.677 90.4864 127.777C90.4864 128.877 91.1151 129.715 92.2781 129.715ZM89.7321 127.777C89.7321 126.321 90.6436 125.095 92.2676 125.095C92.8857 125.095 93.5772 125.42 94.0592 126.195V125.064H94.8136V130.396H94.0592V129.349C93.5563 130.166 92.8962 130.47 92.2676 130.47C90.6436 130.47 89.7321 129.223 89.7321 127.777ZM98.4686 129.736C99.4639 129.736 100.25 128.867 100.25 127.777C100.25 126.708 99.4535 125.839 98.4686 125.839C97.3789 125.839 96.677 126.604 96.677 127.777C96.677 128.972 97.3789 129.736 98.4686 129.736ZM95.9226 127.777C95.9226 126.195 96.9598 125.105 98.4581 125.105C99.2544 125.105 99.9354 125.525 100.25 126.206V125.064H101.004V130.135C100.983 131.832 99.9983 132.796 98.3009 132.796C97.4523 132.796 96.7084 132.356 96.1636 131.539L96.8027 131.13C97.1903 131.738 97.6933 132.041 98.3009 132.041C99.6001 132.041 100.239 131.413 100.25 130.124V129.328C99.883 129.988 99.1391 130.47 98.4581 130.47C96.9598 130.47 95.9226 129.37 95.9226 127.777ZM106.026 127.358C105.943 126.604 105.576 125.797 104.444 125.797C103.449 125.797 102.81 126.331 102.674 127.369L106.026 127.358ZM101.898 127.735C101.898 126.268 102.778 125.043 104.413 125.043C106.11 125.043 106.54 126.363 106.592 126.488C106.906 127.348 106.781 128.102 106.781 128.102H102.674C102.81 129.087 103.449 129.674 104.423 129.674C105.628 129.674 105.922 129.013 105.995 128.909L106.644 129.254C106.644 129.254 106.204 130.428 104.413 130.428C102.778 130.428 101.898 129.192 101.898 127.735Z" fill="#616161"/>
<rect y="68.9893" width="16.558" height="16.558" rx="8.27899" fill="#333333"/>
<path d="M9.44389 73.2545V81.3127L8.11925 81.3017V74.7116L6.67318 75.3739L6.17644 74.1597L8.11925 73.2545H9.44389Z" fill="white"/>
<path d="M43.8757 73.589C41.8436 73.589 40.1962 75.2364 40.1962 77.2686C40.1962 79.3007 41.8436 80.9481 43.8757 80.9481C45.9079 80.9481 47.5553 79.3007 47.5553 77.2686C47.5553 75.2364 45.9079 73.589 43.8757 73.589ZM43.8757 76.5786L16.2791 76.5786L16.2791 77.9585L43.8757 77.9585L43.8757 76.5786Z" fill="#333333"/>
<rect y="89.6865" width="16.558" height="16.558" rx="8.27899" fill="#333333"/>
<path d="M5.46345 100.685C7.08613 99.1289 9.20555 97.8815 9.20555 96.5679C9.20555 95.6076 8.6205 95.1991 7.89195 95.1991C7.41729 95.1991 6.8212 95.3757 6.45693 96.1705L5.25371 95.6296C5.88292 94.2277 7.17444 93.8745 7.89195 93.8745C9.13932 93.8745 10.5302 94.8459 10.5302 96.5679C10.5302 98.2348 8.90751 99.5263 7.49456 100.685H10.6516V102.01H5.46345V100.685Z" fill="white"/>
<path d="M55.1924 94.2863C53.1602 94.2863 51.5128 95.9337 51.5128 97.9658C51.5128 99.998 53.1602 101.645 55.1924 101.645C57.2245 101.645 58.8719 99.998 58.8719 97.9658C58.8719 95.9337 57.2245 94.2863 55.1924 94.2863ZM55.1924 97.2759H16.5571V98.6557H55.1924V97.2759Z" fill="#333333"/>
<rect x="241.47" y="81.4082" width="16.558" height="16.558" rx="8.27899" fill="#333333"/>
<path d="M248.335 90.2103L247.01 90.1551L247.187 85.6734H251.713V86.9981H248.457L248.401 88.5987C248.744 88.4552 249.119 88.3779 249.505 88.3779C251.006 88.3779 252.375 89.5038 252.375 91.1045C252.375 92.6278 250.984 93.842 249.505 93.842C248.247 93.842 247.021 92.9479 246.723 91.6895L248.015 91.3915C248.181 92.0869 248.755 92.5174 249.505 92.5174C250.399 92.5174 251.051 91.9324 251.051 91.1045C251.051 90.2214 250.432 89.7025 249.505 89.7025C248.997 89.7025 248.655 89.8571 248.335 90.2103Z" fill="white"/>
<path d="M213.873 93.3671C215.905 93.3671 217.553 91.7197 217.553 89.6875C217.553 87.6553 215.905 86.0079 213.873 86.0079C211.841 86.0079 210.193 87.6553 210.193 89.6875C210.193 91.7197 211.841 93.3671 213.873 93.3671ZM213.873 90.3774L241.912 90.3774L241.912 88.9976L213.873 88.9976L213.873 90.3774Z" fill="#333333"/>
<rect x="241.47" y="118.663" width="16.558" height="16.558" rx="8.27899" fill="#333333"/>
<path d="M249.549 129.739C250.455 129.739 251.084 129.22 251.084 128.359C251.084 127.542 250.443 126.968 249.549 126.968C248.666 126.968 248.048 127.542 248.048 128.359C248.048 129.22 248.644 129.739 249.549 129.739ZM246.723 128.359C246.723 127.929 246.834 127.52 247.033 127.156H247.021L249.417 122.895H250.929L249.373 125.655C249.439 125.644 249.494 125.644 249.56 125.644C251.029 125.644 252.408 126.847 252.408 128.359C252.408 129.938 251.04 131.064 249.56 131.064C248.092 131.064 246.723 129.938 246.723 128.359Z" fill="white"/>
<path d="M213.873 130.622C215.905 130.622 217.553 128.975 217.553 126.942C217.553 124.91 215.905 123.263 213.873 123.263C211.841 123.263 210.193 124.91 210.193 126.942C210.193 128.975 211.841 130.622 213.873 130.622ZM213.873 127.632L241.912 127.632L241.912 126.252L213.873 126.252L213.873 127.632Z" fill="#333333"/>
<rect x="53.8135" y="-0.00195312" width="16.558" height="16.558" rx="8.27899" fill="#333333"/>
<path d="M63.3723 8.14889C64.0787 8.55732 64.6307 9.24171 64.6307 10.0475C64.6307 11.3943 63.5268 12.3877 61.8379 12.3877C60.16 12.3877 59.0672 11.3943 59.0672 9.94819H60.3918C60.3918 10.5443 60.8113 11.1072 61.8379 11.1072C62.8755 11.1072 63.3502 10.5443 63.3502 9.94819C63.3502 9.34106 62.9749 8.74497 61.86 8.74497H61.297V7.56384H61.882C62.7983 7.56384 63.2288 7.02294 63.2288 6.48205C63.2288 5.96323 62.8203 5.47753 61.9152 5.47753C60.999 5.47753 60.6347 5.96323 60.6347 6.49309H59.31C59.31 5.1243 60.3698 4.19705 61.9152 4.19705C63.4385 4.19705 64.4982 5.1243 64.4982 6.39374C64.4982 7.13333 64.0235 7.75149 63.3723 8.14889Z" fill="white"/>
<path d="M65.7721 44.5947C65.7721 42.5626 64.1247 40.9152 62.0925 40.9152C60.0604 40.9152 58.413 42.5626 58.413 44.5947C58.413 46.6269 60.0604 48.2743 62.0925 48.2743C64.1247 48.2743 65.7721 46.6269 65.7721 44.5947ZM62.7824 44.5947L62.7824 16.5561L61.4026 16.5561L61.4026 44.5947L62.7824 44.5947Z" fill="#333333"/>
<rect x="126.944" y="-0.00195312" width="16.558" height="16.558" rx="8.27899" fill="#333333"/>
<path d="M137.066 4.26328V9.17548H138.015V10.478H137.066V12.3215H135.752V10.478H132.198V9.17548L135.808 4.26328H137.066ZM133.743 9.17548H135.752V6.43789L133.743 9.17548Z" fill="white"/>
<path d="M138.902 82.7881C138.902 80.7559 137.255 79.1085 135.223 79.1085C133.19 79.1085 131.543 80.7559 131.543 82.7881C131.543 84.8202 133.19 86.4676 135.223 86.4676C137.255 86.4676 138.902 84.8202 138.902 82.7881ZM135.913 82.7881L135.913 16.5562L134.533 16.5562L134.533 82.7881L135.913 82.7881Z" fill="#333333"/>
<defs>
<clipPath id="clip0_957_52629">
<rect width="11.9741" height="11.9741" fill="white" transform="translate(33.199 84.4883)"/>
</clipPath>
</defs>
</svg>
