<svg width="295" height="163" viewBox="0 0 295 163" fill="none" xmlns="http://www.w3.org/2000/svg">
<g filter="url(#filter0_dd_1099_71500)">
<mask id="path-1-inside-1_1099_71500" fill="white">
<path d="M14.3887 35.6512C14.3887 30.7741 18.3424 26.8203 23.2196 26.8203H226.331C231.208 26.8203 235.162 30.7741 235.162 35.6512V133.256C235.162 138.133 231.208 142.087 226.331 142.087H23.2196C18.3424 142.087 14.3887 138.133 14.3887 133.256V35.6512Z"/>
</mask>
<path d="M14.3887 35.6512C14.3887 30.7741 18.3424 26.8203 23.2196 26.8203H226.331C231.208 26.8203 235.162 30.7741 235.162 35.6512V133.256C235.162 138.133 231.208 142.087 226.331 142.087H23.2196C18.3424 142.087 14.3887 138.133 14.3887 133.256V35.6512Z" fill="white"/>
<path d="M23.2196 26.8203V27.6827H226.331V26.8203V25.9579H23.2196V26.8203ZM235.162 35.6512H234.299V133.256H235.162H236.024V35.6512H235.162ZM226.331 142.087V141.225H23.2196V142.087V142.95H226.331V142.087ZM14.3887 133.256H15.2511V35.6512H14.3887H13.5263V133.256H14.3887ZM23.2196 142.087V141.225C18.8187 141.225 15.2511 137.657 15.2511 133.256H14.3887H13.5263C13.5263 138.61 17.8661 142.95 23.2196 142.95V142.087ZM235.162 133.256H234.299C234.299 137.657 230.732 141.225 226.331 141.225V142.087V142.95C231.684 142.95 236.024 138.61 236.024 133.256H235.162ZM226.331 26.8203V27.6827C230.732 27.6827 234.299 31.2503 234.299 35.6512H235.162H236.024C236.024 30.2978 231.684 25.9579 226.331 25.9579V26.8203ZM23.2196 26.8203V25.9579C17.8661 25.9579 13.5263 30.2978 13.5263 35.6512H14.3887H15.2511C15.2511 31.2503 18.8187 27.6827 23.2196 27.6827V26.8203Z" fill="#999999" mask="url(#path-1-inside-1_1099_71500)"/>
<path d="M21.2876 44.0685C21.2876 38.353 25.9209 33.7197 31.6363 33.7197H217.914C223.629 33.7197 228.262 38.353 228.262 44.0685V71.5181C228.262 77.2335 223.629 81.8668 217.914 81.8668H31.6364C25.9209 81.8668 21.2876 77.2335 21.2876 71.518V44.0685Z" fill="white"/>
<path fill-rule="evenodd" clip-rule="evenodd" d="M49.4942 52.0084C49.8309 52.3452 49.8309 52.8913 49.4942 53.2281L40.0078 62.7144C39.671 63.0512 39.125 63.0512 38.7882 62.7144L34.4762 58.4024C34.1394 58.0656 34.1394 57.5196 34.4762 57.1828C34.813 56.846 35.359 56.846 35.6958 57.1828L39.398 60.885L48.2745 52.0084C48.6113 51.6717 49.1574 51.6717 49.4942 52.0084Z" fill="#BDBDBD"/>
<path d="M61.4372 60.0454C61.9495 61.1786 63.0205 61.8461 64.4487 61.815C66.8703 61.7374 67.5223 58.6328 65.2093 58.0119C64.4642 57.7324 63.2379 57.3909 62.1668 56.6613C60.6145 55.5902 60.63 54.0224 61.0957 53.0289C61.7166 51.725 63.3776 51.3524 64.309 51.4301C65.2248 51.4921 66.4667 51.8647 67.2273 52.9668L66.2959 53.5878C65.7837 52.8582 64.992 52.6098 64.2158 52.5477C63.5173 52.5167 62.5083 52.734 62.1202 53.4946C61.8097 54.2087 61.8097 55.0314 62.7877 55.73C63.7036 56.3664 64.8057 56.6769 65.5819 56.9563C69.0901 58.0274 68.0966 62.824 64.4797 62.9327C62.6946 62.9948 61.0646 62.0479 60.4127 60.48L61.4372 60.0454ZM75.335 58.2913C75.2108 57.1736 74.6675 55.9783 72.991 55.9783C71.5163 55.9783 70.5694 56.77 70.3676 58.3068L75.335 58.2913ZM69.2189 58.8501C69.2189 56.6769 70.5229 54.8607 72.9445 54.8607C75.4592 54.8607 76.0957 56.8166 76.1733 57.0028C76.639 58.2757 76.4527 59.3934 76.4527 59.3934H70.3676C70.5694 60.8526 71.5163 61.7219 72.96 61.7219C74.7451 61.7219 75.1798 60.7439 75.2885 60.5887L76.2509 61.1009C76.2509 61.1009 75.5989 62.8395 72.9445 62.8395C70.5229 62.8395 69.2189 61.0078 69.2189 58.8501ZM77.8859 51.2748H79.0036V62.793H77.8859V51.2748ZM86.5064 58.2913C86.3822 57.1736 85.8389 55.9783 84.1624 55.9783C82.6877 55.9783 81.7408 56.77 81.539 58.3068L86.5064 58.2913ZM80.3903 58.8501C80.3903 56.6769 81.6942 54.8607 84.1158 54.8607C86.6306 54.8607 87.267 56.8166 87.3447 57.0028C87.8103 58.2757 87.6241 59.3934 87.6241 59.3934H81.539C81.7408 60.8526 82.6877 61.7219 84.1314 61.7219C85.9165 61.7219 86.3512 60.7439 86.4598 60.5887L87.4223 61.1009C87.4223 61.1009 86.7703 62.8395 84.1158 62.8395C81.6942 62.8395 80.3903 61.0078 80.3903 58.8501ZM92.519 61.7529C93.3262 61.7529 94.0713 61.4425 94.5991 60.9147L95.4373 61.6598C94.6922 62.4049 93.6987 62.8706 92.5811 62.8706C90.0353 62.8706 88.5606 60.9923 88.5606 58.7104C88.5606 56.444 90.0353 54.5657 92.5811 54.5657C93.6987 54.5657 94.6922 55.0314 95.4373 55.7765L94.5991 56.5216C94.0713 55.9938 93.3262 55.6834 92.519 55.6834C90.6873 55.6834 89.6783 57.0339 89.6783 58.7104C89.6783 60.4024 90.6873 61.7529 92.519 61.7529ZM100.759 62.6222C100.48 62.6843 100.061 62.7619 99.6104 62.7619C98.4307 62.7619 97.4837 61.815 97.4837 60.6508V55.9162H96.1953V54.8296H97.4837V52.3925H98.6014V54.8296H100.449V55.9162H98.6014V60.6508C98.6014 61.2717 98.974 61.6443 99.6104 61.6443C99.9674 61.6443 100.262 61.5977 100.511 61.5356L100.759 62.6222ZM108.503 61.784C111.064 61.784 112.881 59.7504 112.881 57.1891C112.881 54.6433 111.064 52.5943 108.503 52.5943C105.926 52.5943 104.126 54.6433 104.126 57.1891C104.126 59.7504 105.926 61.784 108.503 61.784ZM102.992 57.1891C102.992 54.0535 105.274 51.4611 108.503 51.4611C111.732 51.4611 114.014 54.0535 114.014 57.1891C114.014 60.3403 111.732 62.9172 108.503 62.9172C105.274 62.9172 102.992 60.3403 102.992 57.1891ZM119.612 61.8305C121.32 61.8305 122.282 60.5576 122.282 58.8967C122.282 57.2667 121.32 55.9938 119.612 55.9938C118.184 55.9938 116.958 57.2667 116.958 58.8967C116.958 60.5576 118.184 61.8305 119.612 61.8305ZM115.825 66.3633V54.8917H116.942V56.5682C117.455 55.4505 118.665 54.9072 119.628 54.9072C122.049 54.9072 123.4 56.7545 123.4 58.8967C123.4 61.0699 122.049 62.9172 119.628 62.9172C118.634 62.9172 117.455 62.2497 116.942 61.2407V66.3633H115.825ZM128.643 62.6222C128.364 62.6843 127.945 62.7619 127.494 62.7619C126.315 62.7619 125.368 61.815 125.368 60.6508V55.9162H124.079V54.8296H125.368V52.3925H126.485V54.8296H128.333V55.9162H126.485V60.6508C126.485 61.2717 126.858 61.6443 127.494 61.6443C127.851 61.6443 128.146 61.5977 128.395 61.5356L128.643 62.6222ZM130.391 54.8917H131.509V62.793H130.391V54.8917ZM130.236 52.0199C130.236 51.6319 130.484 51.3214 130.95 51.3214C131.4 51.3214 131.648 51.6319 131.648 52.0199C131.648 52.4235 131.4 52.734 130.95 52.734C130.484 52.734 130.236 52.4235 130.236 52.0199ZM137.011 61.7684C138.75 61.7684 139.666 60.4955 139.666 58.8501C139.666 57.2046 138.75 55.9318 137.011 55.9318C135.257 55.9318 134.372 57.2046 134.372 58.8501C134.372 60.4955 135.257 61.7684 137.011 61.7684ZM133.255 58.8501C133.255 56.6924 134.59 54.8451 137.011 54.8451C139.448 54.8451 140.783 56.6924 140.783 58.8501C140.783 61.0078 139.448 62.8551 137.011 62.8551C134.59 62.8551 133.255 61.0078 133.255 58.8501ZM147.799 58.136C147.799 56.8631 147.054 55.9783 145.75 55.9783C144.4 55.9783 143.406 57.2357 143.406 58.2913V62.793H142.289V54.8917H143.406V56.2422C143.934 55.4661 144.71 54.8917 145.797 54.8917C147.644 54.8917 148.917 56.2888 148.917 58.0274V62.793H147.799V58.136Z" fill="#333333"/>
<path fill-rule="evenodd" clip-rule="evenodd" d="M207.97 52.1611C208.222 51.9085 208.632 51.9085 208.884 52.1611L214.059 57.3355C214.311 57.5881 214.311 57.9976 214.059 58.2502L208.884 63.4246C208.632 63.6772 208.222 63.6772 207.97 63.4246C207.717 63.172 207.717 62.7624 207.97 62.5099L212.687 57.7928L207.97 53.0758C207.717 52.8232 207.717 52.4137 207.97 52.1611Z" fill="#999999"/>
<path d="M21.2876 92.041C21.2876 89.2796 23.5262 87.041 26.2876 87.041H223.262C226.024 87.041 228.262 89.2796 228.262 92.041V130.188C228.262 132.95 226.024 135.188 223.262 135.188H26.2876C23.5262 135.188 21.2876 132.949 21.2876 130.188V92.041Z" fill="#FFF5E6"/>
<path fill-rule="evenodd" clip-rule="evenodd" d="M49.4942 103.678C49.8309 104.015 49.8309 104.561 49.4942 104.898L40.0078 114.384C39.671 114.721 39.125 114.721 38.7882 114.384L34.4762 110.072C34.1394 109.736 34.1394 109.19 34.4762 108.853C34.813 108.516 35.359 108.516 35.6958 108.853L39.398 112.555L48.2745 103.678C48.6113 103.342 49.1574 103.342 49.4942 103.678Z" fill="#EE6002"/>
<path d="M61.4372 113.367C61.9495 114.5 63.0205 115.167 64.4487 115.136C66.8703 115.059 67.5223 111.954 65.2093 111.333C64.4642 111.054 63.2379 110.712 62.1668 109.983C60.6145 108.912 60.63 107.344 61.0957 106.35C61.7166 105.046 63.3776 104.674 64.309 104.751C65.2248 104.813 66.4667 105.186 67.2273 106.288L66.2959 106.909C65.7837 106.179 64.992 105.931 64.2158 105.869C63.5173 105.838 62.5083 106.055 62.1202 106.816C61.8097 107.53 61.8097 108.353 62.7877 109.051C63.7036 109.688 64.8057 109.998 65.5819 110.278C69.0901 111.349 68.0966 116.145 64.4797 116.254C62.6946 116.316 61.0646 115.369 60.4127 113.801L61.4372 113.367ZM75.335 111.613C75.2108 110.495 74.6675 109.3 72.991 109.3C71.5163 109.3 70.5694 110.091 70.3676 111.628L75.335 111.613ZM69.2189 112.171C69.2189 109.998 70.5229 108.182 72.9445 108.182C75.4592 108.182 76.0957 110.138 76.1733 110.324C76.639 111.597 76.4527 112.715 76.4527 112.715H70.3676C70.5694 114.174 71.5163 115.043 72.96 115.043C74.7451 115.043 75.1798 114.065 75.2885 113.91L76.2509 114.422C76.2509 114.422 75.5989 116.161 72.9445 116.161C70.5229 116.161 69.2189 114.329 69.2189 112.171ZM77.8859 104.596H79.0036V116.114H77.8859V104.596ZM86.5064 111.613C86.3822 110.495 85.8389 109.3 84.1624 109.3C82.6877 109.3 81.7408 110.091 81.539 111.628L86.5064 111.613ZM80.3903 112.171C80.3903 109.998 81.6942 108.182 84.1158 108.182C86.6306 108.182 87.267 110.138 87.3447 110.324C87.8103 111.597 87.6241 112.715 87.6241 112.715H81.539C81.7408 114.174 82.6877 115.043 84.1314 115.043C85.9165 115.043 86.3512 114.065 86.4598 113.91L87.4223 114.422C87.4223 114.422 86.7703 116.161 84.1158 116.161C81.6942 116.161 80.3903 114.329 80.3903 112.171ZM92.519 115.074C93.3262 115.074 94.0713 114.764 94.5991 114.236L95.4373 114.981C94.6922 115.726 93.6987 116.192 92.5811 116.192C90.0353 116.192 88.5606 114.314 88.5606 112.032C88.5606 109.765 90.0353 107.887 92.5811 107.887C93.6987 107.887 94.6922 108.353 95.4373 109.098L94.5991 109.843C94.0713 109.315 93.3262 109.005 92.519 109.005C90.6873 109.005 89.6783 110.355 89.6783 112.032C89.6783 113.724 90.6873 115.074 92.519 115.074ZM100.759 115.944C100.48 116.006 100.061 116.083 99.6104 116.083C98.4307 116.083 97.4837 115.136 97.4837 113.972V109.238H96.1953V108.151H97.4837V105.714H98.6014V108.151H100.449V109.238H98.6014V113.972C98.6014 114.593 98.974 114.966 99.6104 114.966C99.9674 114.966 100.262 114.919 100.511 114.857L100.759 115.944ZM108.503 115.105C111.064 115.105 112.881 113.072 112.881 110.51C112.881 107.965 111.064 105.916 108.503 105.916C105.926 105.916 104.126 107.965 104.126 110.51C104.126 113.072 105.926 115.105 108.503 115.105ZM102.992 110.51C102.992 107.375 105.274 104.782 108.503 104.782C111.732 104.782 114.014 107.375 114.014 110.51C114.014 113.662 111.732 116.238 108.503 116.238C105.274 116.238 102.992 113.662 102.992 110.51ZM119.612 115.152C121.32 115.152 122.282 113.879 122.282 112.218C122.282 110.588 121.32 109.315 119.612 109.315C118.184 109.315 116.958 110.588 116.958 112.218C116.958 113.879 118.184 115.152 119.612 115.152ZM115.825 119.685V108.213H116.942V109.889C117.455 108.772 118.665 108.229 119.628 108.229C122.049 108.229 123.4 110.076 123.4 112.218C123.4 114.391 122.049 116.238 119.628 116.238C118.634 116.238 117.455 115.571 116.942 114.562V119.685H115.825ZM128.643 115.944C128.364 116.006 127.945 116.083 127.494 116.083C126.315 116.083 125.368 115.136 125.368 113.972V109.238H124.079V108.151H125.368V105.714H126.485V108.151H128.333V109.238H126.485V113.972C126.485 114.593 126.858 114.966 127.494 114.966C127.851 114.966 128.146 114.919 128.395 114.857L128.643 115.944ZM130.391 108.213H131.509V116.114H130.391V108.213ZM130.236 105.341C130.236 104.953 130.484 104.643 130.95 104.643C131.4 104.643 131.648 104.953 131.648 105.341C131.648 105.745 131.4 106.055 130.95 106.055C130.484 106.055 130.236 105.745 130.236 105.341ZM137.011 115.09C138.75 115.09 139.666 113.817 139.666 112.171C139.666 110.526 138.75 109.253 137.011 109.253C135.257 109.253 134.372 110.526 134.372 112.171C134.372 113.817 135.257 115.09 137.011 115.09ZM133.255 112.171C133.255 110.014 134.59 108.166 137.011 108.166C139.448 108.166 140.783 110.014 140.783 112.171C140.783 114.329 139.448 116.176 137.011 116.176C134.59 116.176 133.255 114.329 133.255 112.171ZM147.799 111.457C147.799 110.184 147.054 109.3 145.75 109.3C144.4 109.3 143.406 110.557 143.406 111.613V116.114H142.289V108.213H143.406V109.564C143.934 108.787 144.71 108.213 145.797 108.213C147.644 108.213 148.917 109.61 148.917 111.349V116.114H147.799V111.457Z" fill="#333333"/>
<path fill-rule="evenodd" clip-rule="evenodd" d="M207.97 105.482C208.222 105.23 208.632 105.23 208.884 105.482L214.059 110.657C214.311 110.909 214.311 111.319 214.059 111.571L208.884 116.746C208.632 116.998 208.222 116.998 207.97 116.746C207.717 116.493 207.717 116.084 207.97 115.831L212.687 111.114L207.97 106.397C207.717 106.145 207.717 105.735 207.97 105.482Z" fill="#999999"/>
</g>
<rect x="98.5889" width="16.558" height="16.558" rx="8.27899" fill="#333333"/>
<path d="M108.147 8.15084C108.854 8.55927 109.406 9.24367 109.406 10.0495C109.406 11.3962 108.302 12.3897 106.613 12.3897C104.935 12.3897 103.842 11.3962 103.842 9.95014H105.167C105.167 10.5462 105.586 11.1092 106.613 11.1092C107.651 11.1092 108.125 10.5462 108.125 9.95014C108.125 9.34301 107.75 8.74693 106.635 8.74693H106.072V7.56579H106.657C107.573 7.56579 108.004 7.0249 108.004 6.484C108.004 5.96519 107.595 5.47948 106.69 5.47948C105.774 5.47948 105.41 5.96519 105.41 6.49504H104.085C104.085 5.12625 105.145 4.199 106.69 4.199C108.214 4.199 109.273 5.12625 109.273 6.39569C109.273 7.13528 108.799 7.75345 108.147 8.15084Z" fill="white"/>
<path d="M110.547 44.5967C110.547 42.5645 108.9 40.9171 106.868 40.9171C104.836 40.9171 103.188 42.5645 103.188 44.5967C103.188 46.6288 104.836 48.2762 106.868 48.2762C108.9 48.2762 110.547 46.6288 110.547 44.5967ZM106.868 44.5967L107.558 44.5967L107.558 16.558L106.868 16.558L106.178 16.558L106.178 44.5967L106.868 44.5967Z" fill="#333333"/>
<rect x="2" y="31.7354" width="16.558" height="16.558" rx="8.27899" fill="#333333"/>
<path d="M11.4436 36.0006V44.0588L10.119 44.0478V37.4577L8.67294 38.12L8.1762 36.9058L10.119 36.0006H11.4436Z" fill="white"/>
<path d="M45.876 36.3351C43.8438 36.3351 42.1964 37.9825 42.1964 40.0146C42.1964 42.0468 43.8438 43.6942 45.876 43.6942C47.9081 43.6942 49.5555 42.0468 49.5555 40.0146C49.5555 37.9825 47.9081 36.3351 45.876 36.3351ZM45.876 40.0146L45.876 39.3247L18.2793 39.3247L18.2793 40.0146L18.2793 40.7046L45.876 40.7046L45.876 40.0146Z" fill="#333333"/>
<rect x="2" y="100.728" width="16.558" height="16.558" rx="8.27899" fill="#333333"/>
<path d="M7.46321 111.726C9.08589 110.17 11.2053 108.923 11.2053 107.609C11.2053 106.649 10.6203 106.24 9.89171 106.24C9.41705 106.24 8.82096 106.417 8.45668 107.212L7.25347 106.671C7.88267 105.269 9.1742 104.916 9.89171 104.916C11.1391 104.916 12.5299 105.887 12.5299 107.609C12.5299 109.276 10.9073 110.567 9.49432 111.726H12.6514V113.051H7.46321V111.726Z" fill="white"/>
<path d="M57.1934 105.326C55.1612 105.326 53.5138 106.974 53.5138 109.006C53.5138 111.038 55.1612 112.685 57.1934 112.685C59.2255 112.685 60.8729 111.038 60.8729 109.006C60.8729 106.974 59.2255 105.326 57.1934 105.326ZM57.1934 109.006V108.316H18.5581V109.006V109.696H57.1934V109.006Z" fill="#333333"/>
<rect x="277.967" y="49.6738" width="16.558" height="16.558" rx="8.27899" fill="#333333"/>
<path d="M288.088 53.9391V58.8513H289.038V60.1538H288.088V61.9973H286.775V60.1538H283.22V58.8513L286.83 53.9391H288.088ZM284.766 58.8513H286.775V56.1137L284.766 58.8513Z" fill="white"/>
<path d="M250.37 61.6327C252.402 61.6327 254.05 59.9853 254.05 57.9531C254.05 55.921 252.402 54.2736 250.37 54.2736C248.338 54.2736 246.691 55.921 246.691 57.9531C246.691 59.9853 248.338 61.6327 250.37 61.6327ZM250.37 57.9531L250.37 58.643L278.409 58.643L278.409 57.9531L278.409 57.2632L250.37 57.2632L250.37 57.9531Z" fill="#333333"/>
<defs>
<filter id="filter0_dd_1099_71500" x="0.590353" y="19.9212" width="248.37" height="142.863" filterUnits="userSpaceOnUse" color-interpolation-filters="sRGB">
<feFlood flood-opacity="0" result="BackgroundImageFix"/>
<feColorMatrix in="SourceAlpha" type="matrix" values="0 0 0 0 0 0 0 0 0 0 0 0 0 0 0 0 0 0 127 0" result="hardAlpha"/>
<feOffset/>
<feGaussianBlur stdDeviation="3.44958"/>
<feComposite in2="hardAlpha" operator="out"/>
<feColorMatrix type="matrix" values="0 0 0 0 0 0 0 0 0 0 0 0 0 0 0 0 0 0 0.12 0"/>
<feBlend mode="normal" in2="BackgroundImageFix" result="effect1_dropShadow_1099_71500"/>
<feColorMatrix in="SourceAlpha" type="matrix" values="0 0 0 0 0 0 0 0 0 0 0 0 0 0 0 0 0 0 127 0" result="hardAlpha"/>
<feOffset dy="6.89916"/>
<feGaussianBlur stdDeviation="6.89916"/>
<feComposite in2="hardAlpha" operator="out"/>
<feColorMatrix type="matrix" values="0 0 0 0 0 0 0 0 0 0 0 0 0 0 0 0 0 0 0.12 0"/>
<feBlend mode="normal" in2="effect1_dropShadow_1099_71500" result="effect2_dropShadow_1099_71500"/>
<feBlend mode="normal" in="SourceGraphic" in2="effect2_dropShadow_1099_71500" result="shape"/>
</filter>
</defs>
</svg>
