<svg width="154" height="160" viewBox="0 0 154 160" fill="none" xmlns="http://www.w3.org/2000/svg">
<g clip-path="url(#clip0_1824_28362)">
<path d="M79.1348 64.8073C79.142 64.7564 79.2 64.7122 79.2036 64.6613C79.2399 64.3862 79.229 64.1077 79.2869 63.836C79.3449 63.5643 79.4029 63.2892 79.4862 63.0277C79.5695 62.7662 79.6673 62.4979 79.7869 62.2432C79.9064 61.9884 80.0658 61.7541 80.2216 61.5164C80.381 61.2786 80.5332 61.0341 80.7252 60.8201C80.9172 60.6062 81.1309 60.4092 81.3519 60.219C81.5729 60.0288 81.8012 59.8488 82.0366 59.679C82.2721 59.5092 82.5656 59.4141 82.8155 59.2613C83.0655 59.1085 83.3155 58.959 83.5727 58.8198C83.819 58.6873 84.0292 58.4903 84.2828 58.3681C84.5363 58.2458 84.8117 58.1643 85.0689 58.0522C85.3261 57.9402 85.6014 57.862 85.8659 57.7602C86.1304 57.6583 86.3695 57.502 86.6376 57.4069C86.9056 57.3119 87.1701 57.2134 87.4418 57.1319C87.7135 57.0503 87.9925 56.9926 88.2678 56.9213C88.5431 56.85 88.8329 56.833 89.1083 56.7685C89.3836 56.7039 89.6553 56.6156 89.9343 56.5647C90.2132 56.5137 90.4886 56.439 90.7711 56.3983C91.0537 56.3575 91.3363 56.3303 91.6189 56.2964C91.9014 56.2624 92.1876 56.2692 92.4738 56.2488C92.76 56.2285 93.0426 56.2081 93.3252 56.1945C93.6078 56.1809 93.894 56.113 94.1765 56.1096C94.4591 56.1062 94.7453 56.1436 95.0315 56.147C95.3177 56.1503 95.6003 56.1809 95.8829 56.1945C96.1654 56.2081 96.4516 56.2386 96.7342 56.2624C97.0204 56.2862 97.3175 56.2386 97.6 56.276C97.8826 56.3134 98.1616 56.4017 98.4442 56.4492C98.7267 56.4968 99.0202 56.5036 99.2991 56.5681C99.5781 56.6326 99.857 56.7141 100.129 56.799C100.4 56.8839 100.64 57.0537 100.908 57.1556C101.194 57.2677 101.48 57.373 101.763 57.4952C102.045 57.6175 102.331 57.7296 102.625 57.8247C102.965 57.9368 103.328 57.9673 103.679 58.0386C104.03 58.11 104.375 58.2119 104.726 58.2764C105.005 58.3273 105.291 58.3443 105.57 58.4054C105.849 58.4666 106.132 58.5107 106.407 58.5786C106.682 58.6466 106.954 58.7383 107.226 58.813C107.497 58.8877 107.769 58.976 108.037 59.0643C108.305 59.1526 108.566 59.2613 108.834 59.3598C109.102 59.4583 109.356 59.5737 109.617 59.679C109.878 59.7843 110.138 59.8896 110.396 60.0084C110.653 60.1273 110.885 60.2835 111.135 60.4126C111.385 60.5417 111.678 60.5994 111.921 60.7386C112.164 60.8779 112.37 61.0715 112.606 61.2243C112.841 61.3771 113.069 61.5333 113.294 61.6964C113.518 61.8594 113.736 62.0292 113.95 62.2058C114.163 62.3824 114.399 62.5352 114.602 62.722C114.805 62.9088 114.989 63.116 115.178 63.313C115.366 63.5099 115.526 63.7341 115.703 63.9447C115.881 64.1552 116.116 64.3216 116.279 64.5424C116.442 64.7631 116.525 65.0315 116.67 65.259C116.815 65.4865 116.971 65.7107 117.101 65.9484C117.232 66.1862 117.37 66.4205 117.482 66.665C117.594 66.9096 117.696 67.1609 117.786 67.4122C117.877 67.6635 117.909 67.9318 117.978 68.1933C118.047 68.4548 118.141 68.7062 118.188 68.9677C118.239 69.2495 118.239 69.5314 118.261 69.8065C118.282 70.0816 118.29 70.3669 118.282 70.6454C118.275 70.9239 118.268 71.2058 118.232 71.4843C118.195 71.7627 118.127 72.0344 118.069 72.3095C118.011 72.5846 118.025 72.8733 117.949 73.1484C117.873 73.4235 117.725 73.6714 117.638 73.9397C117.551 74.208 117.5 74.4865 117.402 74.7514C117.304 75.0163 117.174 75.271 117.072 75.5359C116.971 75.8008 116.87 76.0624 116.764 76.3273C116.659 76.5922 116.562 76.8537 116.46 77.1186C116.359 77.3835 116.257 77.6484 116.159 77.9133C116.062 78.1782 115.949 78.4397 115.862 78.708C115.775 78.9763 115.696 79.248 115.62 79.5197C115.544 79.7914 115.497 80.0699 115.439 80.345C115.381 80.6201 115.283 80.868 115.199 81.1261C115.116 81.3842 115.051 81.6491 114.946 81.9038C114.841 82.1586 114.714 82.3997 114.594 82.6476C114.475 82.8955 114.395 83.157 114.265 83.4016C114.134 83.6461 114.011 83.8872 113.874 84.1284C113.736 84.3695 113.566 84.5869 113.424 84.8246C113.283 85.0623 113.116 85.2831 112.979 85.5242C112.841 85.7653 112.732 86.0167 112.602 86.2578C112.472 86.4989 112.308 86.7299 112.189 86.9744C112.069 87.2189 111.993 87.4872 111.888 87.7385C111.783 87.9899 111.693 88.248 111.606 88.5095C111.519 88.771 111.443 89.0291 111.381 89.2974C111.319 89.5657 111.323 89.8306 111.287 90.1057C111.254 90.357 111.156 90.6049 111.12 90.8597C111.084 91.1144 111.044 91.3657 110.979 91.6136C110.914 91.8615 110.892 92.1298 110.769 92.3608C110.646 92.5917 110.443 92.7785 110.24 92.9483C110.037 93.1181 109.773 93.2064 109.519 93.2812C109.265 93.3559 109.026 93.4544 108.758 93.3797C108.711 93.6446 108.537 93.828 108.389 94.0487C108.24 94.2695 108.102 94.514 107.881 94.6804C107.66 94.8468 107.389 94.9487 107.132 95.0472C106.874 95.1457 106.606 95.2442 106.327 95.2883C106.048 95.3325 105.766 95.3732 105.483 95.3732C105.201 95.3732 104.914 95.3461 104.635 95.3155C104.353 95.2849 104.056 95.2544 103.759 95.1966C103.462 95.1389 103.19 95.0744 102.897 94.9996C102.603 94.9249 102.353 94.7925 102.071 94.7042C101.788 94.6159 101.498 94.5717 101.223 94.4698C100.947 94.368 100.705 94.2015 100.437 94.0895C100.169 93.9774 99.9005 93.8653 99.6397 93.7397C99.3788 93.614 99.118 93.4815 98.868 93.3423C98.618 93.2031 98.3282 93.1046 98.0855 92.9517C97.8428 92.7989 97.6363 92.5849 97.4044 92.4185C97.1726 92.2521 96.9624 92.0517 96.7487 91.8683C96.535 91.6849 96.2814 91.5219 96.0857 91.3215C95.8901 91.1212 95.7343 90.8732 95.5677 90.6559C95.3865 90.4216 95.1547 90.2212 94.9735 89.9868C94.7924 89.7525 94.633 89.5046 94.4519 89.2702C94.2707 89.0359 94.0823 88.8083 93.9012 88.574C93.7201 88.3397 93.4991 88.1325 93.3179 87.8982C93.1368 87.6638 92.9593 87.3717 92.7781 87.1374C93.0499 86.9133 93.1658 87.1068 93.5136 87.0118C93.8614 86.9167 93.8614 86.9201 94.2091 86.825C94.5569 86.7299 94.6004 86.8012 94.8649 86.5702C94.6801 86.3121 94.5171 86.0948 94.3323 85.8367C94.1476 85.5785 93.9411 85.3374 93.7635 85.0759C93.615 84.8552 93.5317 84.597 93.4085 84.3627C93.2853 84.1284 93.1513 83.8974 93.0317 83.6631C92.9122 83.4287 92.7999 83.1842 92.6586 82.9635C92.5173 82.7427 92.3507 82.5287 92.155 82.3386C91.9594 82.1484 91.7348 82.0261 91.4812 81.8869C91.2131 81.7408 90.9486 81.6016 90.6769 81.4827C90.4052 81.3638 90.148 81.1771 89.8691 81.0684C89.5901 80.9597 89.2894 80.8748 89.0068 80.7695C88.7243 80.6642 88.4127 80.6167 88.1338 80.5012C87.8548 80.3857 87.5722 80.2703 87.3005 80.1378C87.0288 80.0054 86.7933 79.8186 86.5361 79.6589C86.2789 79.4993 86.047 79.3295 85.8116 79.1359C85.5906 78.9525 85.3406 78.7793 85.1341 78.5552C84.9131 78.3174 84.7827 78.0356 84.6088 77.7978C84.424 77.5431 84.2139 77.3156 84.0581 77.0574C83.9024 76.7993 83.7792 76.5208 83.6307 76.2491C83.4821 75.9775 83.3662 75.7092 83.2068 75.4375C83.0727 75.2065 82.9133 74.9858 82.7539 74.7718C82.5945 74.5578 82.4098 74.3575 82.2359 74.1503C82.062 73.9431 81.9026 73.7292 81.7287 73.522C81.5548 73.3148 81.3193 73.1518 81.1599 72.9378C81.0005 72.7239 80.9353 72.4522 80.8013 72.2212C80.6564 71.9699 80.4607 71.7458 80.3339 71.4877C80.2071 71.2295 80.1093 70.9578 80.0006 70.6929C79.892 70.428 79.7362 70.1733 79.6456 69.9016C79.555 69.6299 79.5116 69.3446 79.4391 69.0662C79.3666 68.7877 79.3268 68.5058 79.2761 68.2273C79.2254 67.9488 79.1167 67.6703 79.0841 67.3884C79.0515 67.1065 79.1058 66.8145 79.0949 66.5292C79.0841 66.2439 79.0152 65.9586 79.0261 65.6733C79.037 65.3881 79.0877 65.1028 79.1203 64.8209L79.1348 64.8073Z" fill="#97928C"/>
<path d="M129.026 122.428C128.924 122.173 128.743 121.946 128.638 121.688C128.533 121.43 128.453 121.168 128.348 120.917C128.243 120.666 128.178 120.394 128.066 120.139C127.953 119.884 127.794 119.653 127.682 119.402C127.569 119.151 127.486 118.886 127.37 118.635C127.254 118.383 127.146 118.129 127.022 117.881C126.899 117.633 126.747 117.398 126.62 117.15C126.493 116.903 126.356 116.665 126.225 116.42C126.095 116.176 125.914 115.955 125.78 115.714C125.646 115.473 125.566 115.201 125.425 114.963C125.283 114.726 125.095 114.512 124.95 114.274C124.805 114.036 124.675 113.792 124.526 113.557C124.378 113.323 124.193 113.109 124.037 112.878C123.881 112.647 123.762 112.396 123.603 112.168C123.443 111.941 123.313 111.689 123.146 111.469C122.979 111.248 122.813 111.02 122.639 110.8C122.465 110.579 122.284 110.365 122.106 110.147C121.929 109.93 121.69 109.76 121.505 109.55C121.32 109.339 121.125 109.135 120.936 108.928C120.748 108.721 120.556 108.517 120.36 108.313C120.165 108.11 119.98 107.899 119.777 107.702C119.578 107.509 119.404 107.291 119.197 107.101C118.991 106.911 118.755 106.751 118.545 106.568C118.335 106.384 118.121 106.204 117.904 106.028C117.687 105.851 117.48 105.661 117.255 105.491C117.031 105.321 116.792 105.169 116.563 105.006C116.335 104.843 116.1 104.686 115.864 104.53C115.629 104.374 115.422 104.177 115.183 104.027C114.944 103.878 114.698 103.732 114.455 103.589C114.212 103.447 113.926 103.365 113.676 103.233C113.426 103.1 113.202 102.92 112.948 102.795C112.694 102.669 112.415 102.587 112.155 102.469C111.894 102.35 111.662 102.183 111.397 102.075C111.133 101.966 110.861 101.874 110.593 101.776C110.325 101.677 110.039 101.62 109.771 101.528C109.503 101.436 109.238 101.324 108.963 101.243C108.927 101.226 108.876 101.243 108.84 101.226C108.583 101.107 108.329 100.988 108.064 100.883C107.8 100.777 107.543 100.669 107.271 100.574C106.999 100.478 106.753 100.336 106.478 100.254C106.202 100.173 105.909 100.166 105.63 100.098C105.351 100.03 105.094 99.8977 104.811 99.8399C104.529 99.7822 104.246 99.7482 103.963 99.7007C103.681 99.6531 103.395 99.6361 103.109 99.5988C102.822 99.5614 102.547 99.4833 102.261 99.4528C101.975 99.4222 101.685 99.4527 101.399 99.429C101.112 99.4052 100.83 99.3543 100.544 99.3373C100.257 99.3203 99.9712 99.3271 99.685 99.3135C99.3988 99.2999 99.109 99.3305 98.8264 99.3271C98.5293 99.3203 98.2359 99.2422 97.9388 99.2422C97.6418 99.2422 97.3447 99.2592 97.0476 99.2626C96.7506 99.266 96.4571 99.3101 96.16 99.3203C95.863 99.3305 95.5623 99.2897 95.2688 99.3067C94.9754 99.3237 94.6783 99.3848 94.3849 99.4086C94.0914 99.4324 93.798 99.5037 93.5046 99.5377C93.2111 99.5716 92.9068 99.5411 92.6134 99.5818C92.3199 99.6226 92.0373 99.7211 91.7439 99.772C91.4504 99.8229 91.1534 99.8399 90.8636 99.8977C90.5737 99.9554 90.2803 99.9995 89.9941 100.071C89.7079 100.142 89.4145 100.2 89.1319 100.278C88.8457 100.36 88.5595 100.444 88.2805 100.536C88.0016 100.628 87.7226 100.733 87.4473 100.838C87.172 100.944 86.893 101.049 86.6249 101.164C86.3568 101.28 86.1214 101.467 85.8569 101.592C85.5924 101.718 85.3135 101.823 85.0599 101.963C84.8063 102.102 84.5599 102.261 84.31 102.411C84.06 102.56 83.81 102.713 83.5673 102.869C83.3246 103.026 83.0601 103.165 82.8246 103.331C82.5892 103.498 82.3863 103.708 82.158 103.885C81.9298 104.061 81.6581 104.194 81.4371 104.377C81.2161 104.561 81.0386 104.792 80.8249 104.985C80.6003 105.148 80.3938 105.332 80.1728 105.505C79.9518 105.678 79.7344 105.844 79.5207 106.021C79.3069 106.198 79.0896 106.367 78.8758 106.547C78.6621 106.727 78.4556 106.907 78.2491 107.091C78.0426 107.274 77.8325 107.454 77.6223 107.638C77.4122 107.821 77.1441 107.94 76.934 108.12C76.7239 108.3 76.5609 108.527 76.3471 108.704C76.1334 108.881 75.9233 109.061 75.7095 109.237C75.4958 109.414 75.2965 109.607 75.0792 109.777C74.8618 109.947 74.6009 110.073 74.3763 110.232C74.1445 110.399 73.9235 110.575 73.6808 110.725C73.438 110.874 73.2026 111.037 72.949 111.17C72.6954 111.302 72.4273 111.411 72.1664 111.53C71.9056 111.649 71.6122 111.696 71.3441 111.801C71.076 111.907 70.826 112.049 70.5507 112.141C70.2754 112.233 69.9964 112.301 69.7211 112.386C69.4457 112.47 69.1704 112.559 68.8951 112.637C68.6198 112.715 68.3444 112.813 68.0655 112.888C67.7865 112.963 67.5039 113.031 67.225 113.106C66.946 113.18 66.6671 113.262 66.3917 113.336C66.1164 113.411 65.8266 113.462 65.5513 113.54C65.2759 113.618 65.0079 113.737 64.7361 113.826C64.4644 113.914 64.1855 113.995 63.9174 114.09C63.6493 114.186 63.3776 114.284 63.1131 114.389C62.8487 114.495 62.577 114.593 62.3161 114.715C62.0553 114.838 61.7908 114.95 61.5409 115.086C61.2909 115.221 61.0264 115.34 60.7837 115.49C60.541 115.639 60.3309 115.836 60.099 115.996C59.8671 116.155 59.5954 116.278 59.3708 116.447C59.1462 116.617 58.9614 116.838 58.7477 117.021C58.534 117.205 58.284 117.354 58.0775 117.544C57.871 117.735 57.7043 117.966 57.5087 118.163C57.3131 118.359 57.1283 118.573 56.9363 118.777C56.7443 118.981 56.5668 119.195 56.3857 119.409C56.2045 119.623 56.0089 119.823 55.8386 120.044C55.6684 120.265 55.5234 120.502 55.3604 120.727C55.1974 120.951 55.0307 121.175 54.8786 121.406C54.7264 121.637 54.5743 121.871 54.4294 122.106C54.2845 122.34 54.0707 122.544 53.933 122.781C53.7954 123.019 53.665 123.277 53.5382 123.525C53.4114 123.773 53.3606 124.058 53.2375 124.31C53.1143 124.561 52.9585 124.799 52.8462 125.057C52.7339 125.315 52.5926 125.559 52.4876 125.818C52.3825 126.076 52.3463 126.358 52.2485 126.619C52.1506 126.881 52.0709 127.145 51.984 127.41C51.897 127.675 51.7847 127.933 51.7014 128.198C51.6181 128.463 51.4877 128.718 51.4116 128.986C51.3355 129.255 51.2993 129.53 51.2305 129.801C51.1616 130.073 51.1218 130.345 51.0566 130.616C50.9914 130.888 50.9189 131.156 50.8646 131.428C50.8102 131.7 50.716 131.965 50.6617 132.24C50.6073 132.515 50.5602 132.787 50.5132 133.058C50.4661 133.33 50.4805 133.615 50.4371 133.887C50.3936 134.159 50.3139 134.43 50.274 134.705C50.2342 134.981 50.1799 135.252 50.1436 135.527C50.1074 135.802 50.0676 136.078 50.035 136.353C50.006 136.624 50.0567 136.903 50.0277 137.175C49.9987 137.446 49.9263 137.711 49.9045 137.983C49.8828 138.255 49.919 138.53 49.9045 138.801C49.89 139.073 49.8683 139.345 49.8647 139.616C49.8611 139.888 49.7705 140.16 49.7741 140.435C49.7777 140.71 49.8067 140.982 49.8248 141.253C49.8429 141.525 49.8683 141.797 49.8937 142.068C49.919 142.34 50.0132 142.602 50.0567 142.873C50.1002 143.145 50.1038 143.417 50.1617 143.685C50.2197 143.953 50.3284 144.208 50.4045 144.47C50.4805 144.731 50.5856 144.986 50.6798 145.241C50.774 145.495 50.8609 145.757 50.9732 146.008C51.0855 146.259 51.2051 146.507 51.3391 146.748C51.4732 146.99 51.5964 147.237 51.7521 147.468C51.9079 147.699 52.0564 147.934 52.2303 148.151C52.4042 148.368 52.5962 148.576 52.7919 148.776C52.9875 148.976 53.165 149.201 53.3788 149.384C53.5925 149.567 53.8787 149.669 54.1142 149.832C54.3642 150.002 54.5851 150.202 54.846 150.345C55.1068 150.488 55.3858 150.617 55.6611 150.732C55.9364 150.848 56.2226 150.956 56.5125 151.048C56.8023 151.14 57.103 151.184 57.4 151.255C57.6971 151.327 57.9869 151.401 58.2876 151.452C58.5883 151.503 58.8854 151.574 59.1861 151.608C59.4867 151.642 59.7983 151.591 60.1026 151.608C60.4069 151.625 60.7076 151.721 61.0083 151.727C61.2402 151.734 61.5336 151.693 61.8597 151.659C62.1205 151.632 62.4031 151.574 62.7001 151.534C62.9719 151.496 63.2581 151.459 63.5443 151.425C63.8305 151.391 64.1167 151.408 64.3956 151.388C64.6746 151.367 64.9716 151.32 65.247 151.327C65.5513 151.333 65.8302 151.388 66.0838 151.442C66.3881 151.507 66.6417 151.605 66.8337 151.768C66.9569 151.87 67.062 152.131 67.1453 152.522C67.196 152.756 67.2105 153.038 67.2467 153.344C67.2793 153.602 67.3844 153.874 67.4061 154.162C67.4279 154.431 67.3735 154.713 67.388 154.994C67.4025 155.276 67.4605 155.545 67.4713 155.823C67.4822 156.102 67.4568 156.384 67.4677 156.655C67.4786 156.927 67.4822 157.219 67.4894 157.487C67.4967 157.779 67.5039 158.061 67.5076 158.319C67.5076 158.628 67.5148 158.91 67.5148 159.148C67.5148 159.657 67.5329 160.007 67.5402 160.007C67.83 160.007 68.1234 160 68.4133 159.997C68.7031 159.994 68.9965 159.973 69.2863 159.97C69.5762 159.967 69.8696 159.994 70.1594 159.994C70.4492 159.994 70.7427 159.967 71.0325 159.963C71.3223 159.96 71.6158 159.977 71.9056 159.977C72.1954 159.977 72.4889 159.929 72.7787 159.926C73.0685 159.922 73.362 159.912 73.6518 159.912C73.9416 159.912 74.235 159.943 74.5249 159.943C74.8147 159.943 75.1081 159.97 75.398 159.97C75.6878 159.97 75.9812 159.939 76.271 159.939C76.5609 159.939 76.8543 159.973 77.1441 159.973C77.434 159.973 77.7274 159.933 78.0172 159.933C78.307 159.933 78.6005 159.929 78.8903 159.926C79.1801 159.922 79.4736 159.926 79.7634 159.926C80.0532 159.926 80.3467 159.875 80.6365 159.875C80.9263 159.875 81.2197 159.943 81.5096 159.939C81.7994 159.936 82.0928 159.936 82.3827 159.936C82.6725 159.936 82.9659 159.865 83.2557 159.861C83.5456 159.858 83.839 159.888 84.1288 159.888C84.4187 159.888 84.7121 159.943 85.0019 159.939C85.2917 159.936 85.5852 159.841 85.875 159.841C86.1648 159.841 86.4583 159.929 86.7481 159.926C87.0379 159.922 87.3314 159.851 87.6212 159.851C87.911 159.851 88.2044 159.892 88.4943 159.892C88.7841 159.892 89.0775 159.861 89.3674 159.861C89.6572 159.861 89.9506 159.834 90.2404 159.834C90.5303 159.834 90.8237 159.837 91.1135 159.834C91.4033 159.831 91.6968 159.817 91.9866 159.814C92.2764 159.81 92.5699 159.817 92.8597 159.814C93.1495 159.81 93.443 159.871 93.7328 159.868C94.0226 159.865 94.3161 159.814 94.6059 159.814C94.8957 159.814 95.1891 159.875 95.479 159.875C95.7688 159.875 96.0622 159.861 96.3521 159.858C96.6419 159.854 96.9353 159.854 97.2251 159.851C97.515 159.848 97.8084 159.787 98.0982 159.787C98.3881 159.787 98.6815 159.844 98.9713 159.841C99.2611 159.837 99.5546 159.865 99.8444 159.865C100.134 159.865 100.428 159.814 100.717 159.81C101.007 159.807 101.301 159.854 101.591 159.854C101.88 159.854 102.174 159.793 102.464 159.793C102.753 159.793 103.047 159.817 103.337 159.817C103.627 159.817 103.92 159.807 104.21 159.807C104.5 159.807 104.793 159.759 105.083 159.756C105.373 159.753 105.666 159.749 105.956 159.749C106.246 159.749 106.539 159.824 106.829 159.824C107.119 159.824 107.412 159.824 107.702 159.824C107.992 159.824 108.285 159.746 108.575 159.742C108.865 159.739 109.159 159.77 109.448 159.77C109.738 159.77 110.032 159.739 110.321 159.739C110.611 159.739 110.905 159.787 111.195 159.787C111.484 159.787 111.778 159.759 112.068 159.759C112.357 159.759 112.651 159.773 112.941 159.77C113.231 159.766 113.524 159.77 113.814 159.766C114.104 159.763 114.397 159.725 114.687 159.722C114.977 159.719 115.27 159.729 115.56 159.725C115.85 159.722 116.143 159.797 116.433 159.797C116.723 159.797 117.016 159.77 117.306 159.77C117.596 159.77 117.889 159.702 118.183 159.702C118.476 159.722 118.77 159.739 119.063 159.759C119.357 159.78 119.646 159.844 119.94 159.861C120.233 159.878 120.527 159.895 120.82 159.905C121.114 159.916 121.407 159.888 121.701 159.895C121.994 159.902 122.284 159.983 122.577 159.99C122.871 159.997 123.164 159.946 123.458 159.946C123.751 159.946 124.045 159.973 124.338 159.973C124.631 159.973 124.925 160 125.218 159.997C125.512 159.994 125.805 159.984 126.099 159.977C126.392 159.97 126.686 159.946 126.979 159.936C127.272 159.926 127.566 159.929 127.859 159.919C128.153 159.909 128.443 159.814 128.732 159.797C129.022 159.78 129.327 159.854 129.616 159.837C129.906 159.82 130.196 159.736 130.489 159.712C130.783 159.688 131.076 159.688 131.37 159.661C131.663 159.634 131.949 159.556 132.239 159.525C132.529 159.494 132.826 159.505 133.116 159.471C133.159 159.202 133.217 158.934 133.257 158.666C133.297 158.397 133.268 158.119 133.304 157.847C133.341 157.576 133.449 157.314 133.482 157.042C133.514 156.771 133.478 156.492 133.507 156.224C133.536 155.956 133.638 155.687 133.667 155.416C133.696 155.144 133.656 154.869 133.681 154.597C133.706 154.325 133.808 154.06 133.826 153.785C133.844 153.51 133.862 153.242 133.88 152.967C133.898 152.692 133.84 152.42 133.851 152.145C133.862 151.87 133.917 151.602 133.927 151.33C133.938 151.058 133.971 150.787 133.978 150.511C133.985 150.236 134 149.965 134.003 149.693C134.007 149.421 133.985 149.146 133.985 148.874C133.985 148.603 133.971 148.328 133.967 148.056C133.964 147.784 133.935 147.513 133.931 147.238C133.927 146.962 133.946 146.691 133.938 146.419C133.931 146.147 133.953 145.872 133.938 145.601C133.924 145.329 133.877 145.057 133.862 144.785C133.848 144.514 133.815 144.242 133.797 143.97C133.779 143.699 133.75 143.427 133.728 143.155C133.706 142.884 133.732 142.608 133.71 142.337C133.688 142.065 133.63 141.797 133.605 141.525C133.58 141.253 133.572 140.982 133.543 140.71C133.514 140.438 133.478 140.167 133.442 139.898C133.406 139.63 133.308 139.365 133.272 139.093C133.235 138.822 133.214 138.55 133.178 138.282C133.141 138.013 133.13 137.738 133.087 137.467C133.043 137.195 132.978 136.93 132.931 136.662C132.884 136.393 132.812 136.128 132.765 135.86C132.717 135.592 132.663 135.324 132.612 135.055C132.562 134.787 132.515 134.519 132.457 134.25C132.399 133.982 132.42 133.7 132.362 133.435C132.304 133.17 132.167 132.916 132.105 132.651C132.044 132.386 132.033 132.107 131.968 131.842C131.902 131.578 131.794 131.319 131.725 131.055C131.656 130.79 131.656 130.511 131.583 130.246C131.511 129.981 131.431 129.72 131.359 129.455C131.286 129.19 131.203 128.929 131.127 128.667C131.051 128.405 130.971 128.141 130.892 127.879C130.812 127.618 130.689 127.366 130.609 127.105C130.529 126.843 130.424 126.589 130.341 126.327C130.258 126.065 130.236 125.787 130.145 125.525C130.055 125.264 129.971 125.006 129.881 124.748C129.79 124.49 129.638 124.249 129.544 123.99C129.45 123.732 129.341 123.481 129.243 123.223C129.145 122.965 129.131 122.679 129.029 122.425L129.026 122.428Z" fill="#6B8EBF"/>
<path d="M74.6524 123.207C74.522 123.641 74.3771 124.073 74.2358 124.504C74.1018 124.911 74.0438 125.333 73.9279 125.744C73.6779 126.616 73.4606 127.499 73.2577 128.382C73.0548 129.265 72.8809 130.114 72.6563 130.974C72.5476 131.381 72.4752 131.816 72.4498 132.237C72.4353 132.475 72.4172 132.709 72.3737 132.947C72.3375 133.158 72.2723 133.368 72.2578 133.582C72.2433 133.796 72.265 134.02 72.2578 134.241C72.2469 134.475 72.2035 134.703 72.1781 134.934C72.131 135.382 72.1745 135.837 72.1382 136.285C72.102 136.734 72.0984 137.189 72.1238 137.641C72.1346 137.848 72.1745 138.048 72.1962 138.252C72.2216 138.5 72.1998 138.744 72.1962 138.992C72.1817 139.407 72.3158 139.804 72.3158 140.218C72.3158 140.439 72.294 140.656 72.3049 140.877C72.3158 141.125 72.3556 141.366 72.3701 141.614C72.381 141.821 72.3629 142.025 72.3447 142.232C72.3266 142.467 72.3375 142.697 72.3484 142.928C72.3665 143.394 72.3556 143.856 72.3556 144.321C72.3556 144.813 72.3556 145.306 72.294 145.798C72.2614 146.056 72.189 146.301 72.1238 146.556C72.073 146.756 72.0694 146.956 72.0477 147.163C71.9933 147.656 71.7868 148.104 71.6383 148.573C71.4789 149.069 71.2507 149.514 71.0079 149.979C70.8775 150.227 70.5044 150.295 70.2653 150.162C69.9972 150.016 69.9392 149.714 70.0696 149.466C70.2653 149.093 70.45 148.743 70.5768 148.345C70.6964 147.972 70.892 147.591 70.9572 147.204C70.9935 146.987 70.9898 146.763 71.0261 146.545C71.0587 146.348 71.1202 146.158 71.171 145.961C71.276 145.56 71.2796 145.109 71.276 144.698C71.276 144.246 71.276 143.794 71.276 143.343C71.276 142.891 71.2507 142.443 71.2833 141.991C71.3159 141.539 71.2108 141.091 71.2181 140.639C71.2217 140.436 71.2398 140.232 71.2217 140.025C71.2036 139.817 71.1492 139.607 71.1239 139.396C71.0695 138.951 71.1456 138.507 71.0876 138.058C71.0297 137.61 71.0224 137.158 71.0297 136.707C71.0369 136.255 71.0732 135.834 71.0768 135.392C71.0804 134.951 71.1855 134.496 71.1782 134.041C71.1782 133.81 71.171 133.585 71.2036 133.354C71.2362 133.124 71.305 132.879 71.3376 132.638C71.3992 132.19 71.4173 131.738 71.497 131.29C71.5695 130.868 71.7035 130.464 71.7868 130.043C71.8702 129.622 71.9607 129.184 72.0622 128.756C72.3013 127.768 72.5114 126.773 72.7903 125.795C72.9208 125.343 72.9932 124.881 73.1273 124.433C73.2758 123.933 73.4533 123.438 73.6055 122.938C73.7939 122.307 74.8445 122.575 74.6524 123.21V123.207Z" fill="#4E719B"/>
<path d="M90.3633 93.0444C90.3705 93.3059 90.3162 93.564 90.3126 93.8255C90.309 94.087 90.2945 94.3451 90.2836 94.6032C90.2727 94.8613 90.3452 95.1262 90.3271 95.3877C90.309 95.6492 90.2582 95.904 90.2329 96.1655C90.2075 96.427 90.164 96.6817 90.1314 96.9398C90.0988 97.1979 90.1206 97.4628 90.0807 97.7209C90.0409 97.9791 89.9648 98.2304 89.9177 98.4885C89.8706 98.7466 89.7619 98.9911 89.7076 99.2458C89.6532 99.5006 89.5989 99.7553 89.5373 100.01C89.4757 100.265 89.3996 100.513 89.3308 100.764C89.2765 100.958 89.2257 101.216 89.3344 101.379C89.4431 101.542 89.7003 101.576 89.8923 101.596C90.1894 101.623 90.4865 101.637 90.7835 101.661C91.0806 101.684 91.3777 101.725 91.6747 101.745C91.9718 101.766 92.2725 101.783 92.5696 101.796C92.8666 101.81 93.1673 101.749 93.468 101.756C93.7687 101.762 94.0621 101.817 94.3628 101.82C94.6635 101.824 94.9606 101.769 95.2577 101.769C95.5547 101.769 95.8554 101.783 96.1525 101.776C96.4495 101.769 96.7502 101.766 97.0473 101.756C97.3444 101.745 97.6451 101.745 97.9421 101.728C98.2392 101.711 98.5399 101.701 98.8369 101.678C99.134 101.654 99.4238 101.555 99.7209 101.528C100.018 101.501 100.319 101.508 100.616 101.477C100.913 101.447 101.206 101.402 101.503 101.365C101.8 101.328 102.094 101.277 102.387 101.233C102.478 101.219 102.55 101.195 102.615 101.134C102.721 101.032 102.742 100.883 102.717 100.737C102.673 100.462 102.677 100.18 102.637 99.9047C102.597 99.6296 102.481 99.3613 102.449 99.0862C102.416 98.8111 102.452 98.5258 102.423 98.2474C102.395 97.9689 102.376 97.6938 102.351 97.4153C102.326 97.1368 102.286 96.8617 102.264 96.5832C102.242 96.3047 102.166 96.0296 102.148 95.7545C102.13 95.4794 102.101 95.1976 102.09 94.9191C102.079 94.6406 102.163 94.3587 102.155 94.0802C102.148 93.8017 102.108 93.5232 102.105 93.2447C102.101 92.9662 102.076 92.6878 102.076 92.4093C102.076 92.1308 102.105 91.8523 102.112 91.5738C102.119 91.2953 102.09 91.0168 102.097 90.7383C102.105 90.4598 102.17 90.1847 102.184 89.9062" fill="#EBBEA7"/>
<path d="M78.2222 83.6741C78.3055 83.9424 78.4142 84.2039 78.5011 84.4688C78.5881 84.7337 78.6315 85.0156 78.7221 85.2805C78.8127 85.5454 78.9105 85.8103 79.0083 86.0718C79.1061 86.3333 79.251 86.5846 79.3525 86.8427C79.4539 87.1009 79.4793 87.3963 79.5916 87.651C79.7039 87.9058 79.8923 88.1367 80.0154 88.388C80.1386 88.6393 80.2654 88.8907 80.4031 89.1386C80.5407 89.3865 80.6241 89.6616 80.7762 89.8993C80.9284 90.1371 81.1312 90.3476 81.2979 90.5786C81.4645 90.8095 81.6095 91.054 81.7978 91.2714C81.9862 91.4888 82.2072 91.6756 82.4065 91.8827C82.6057 92.0899 82.7687 92.3242 82.9897 92.5178C83.2107 92.7114 83.4643 92.8506 83.6998 93.0272C83.9135 93.1903 84.1092 93.3737 84.3338 93.5231C84.5584 93.6725 84.7975 93.805 85.0293 93.9408C85.2612 94.0767 85.5184 94.1752 85.7611 94.2974C86.0039 94.4197 86.2176 94.5929 86.464 94.705C86.7103 94.8171 86.9929 94.8578 87.2465 94.9529C87.5001 95.048 87.7609 95.1261 88.0218 95.2076C88.2826 95.2891 88.5217 95.442 88.7862 95.5099C89.0506 95.5778 89.3404 95.554 89.6085 95.605C89.8766 95.6559 90.1375 95.7476 90.4092 95.785C90.7207 95.8291 91.0214 95.8733 91.3185 95.8801C91.6155 95.8869 91.9307 95.8257 92.2314 95.8121C92.5321 95.7986 92.84 95.7952 93.1443 95.7816C93.4487 95.768 93.7494 95.7205 94.0573 95.7205C94.3471 95.7205 94.6333 95.7782 94.9195 95.7918C95.2057 95.8054 95.4955 95.8393 95.7817 95.8563C96.0679 95.8733 96.3614 95.8189 96.6476 95.8291C96.9338 95.8393 97.22 95.9038 97.5098 95.897C97.7996 95.8903 98.0894 95.8971 98.3756 95.8631C98.6655 95.8291 98.9444 95.7171 99.2306 95.6729C99.5168 95.6288 99.803 95.5778 100.089 95.5201C100.375 95.4623 100.68 95.4827 100.959 95.4148C101.238 95.3469 101.502 95.2008 101.777 95.1193C102.053 95.0378 102.332 94.9495 102.603 94.8578C102.875 94.7661 103.14 94.6506 103.408 94.5386C103.676 94.4265 103.937 94.3144 104.194 94.1888C104.451 94.0631 104.726 93.9646 104.976 93.822C105.226 93.6793 105.476 93.5401 105.715 93.3839C105.954 93.2276 106.183 93.0578 106.407 92.8846C106.632 92.7114 106.853 92.5348 107.067 92.3446C107.28 92.1544 107.465 91.9507 107.664 91.7469C107.864 91.5431 108.041 91.3359 108.222 91.1186C108.403 90.9012 108.588 90.6941 108.751 90.4665C108.914 90.239 109.052 90.0012 109.197 89.7601C109.342 89.519 109.508 89.3084 109.646 89.0741C109.784 88.8397 109.932 88.6088 110.066 88.3744C110.2 88.1401 110.309 87.8854 110.439 87.651C110.57 87.4167 110.693 87.1688 110.82 86.931C110.947 86.6933 111.041 86.4352 111.16 86.1941C111.28 85.9529 111.421 85.7186 111.537 85.4741C111.653 85.2295 111.798 84.9952 111.907 84.7473C112.015 84.4994 112.059 84.2277 112.157 83.9763C112.254 83.725 112.356 83.4771 112.446 83.2224C112.537 82.9677 112.693 82.7333 112.776 82.4786C112.859 82.2239 112.874 81.9488 112.943 81.6873C113.012 81.4258 113.102 81.1745 113.164 80.913C113.225 80.6514 113.251 80.3865 113.298 80.1216C113.345 79.8567 113.417 79.5986 113.45 79.3337C113.483 79.0688 113.504 78.8039 113.53 78.5356C113.555 78.2673 113.519 78.0024 113.53 77.7341C113.541 77.4658 113.609 77.2043 113.609 76.9326C113.609 76.6609 113.599 76.3994 113.584 76.1277C113.57 75.8526 113.519 75.5809 113.486 75.3058C113.454 75.0307 113.475 74.7488 113.428 74.4805C113.381 74.2122 113.327 73.9371 113.262 73.6688C113.196 73.4005 113.055 73.1492 112.979 72.8843C112.903 72.6194 112.863 72.3409 112.769 72.0828C112.675 71.8247 112.512 71.5869 112.399 71.3322C112.287 71.0775 112.24 70.799 112.117 70.5477C111.994 70.2964 111.874 70.0451 111.736 69.8005C111.599 69.556 111.428 69.3319 111.276 69.0941C111.124 68.8564 110.965 68.6288 110.802 68.3979C110.639 68.167 110.429 67.97 110.255 67.7526C110.081 67.5353 109.961 67.2704 109.773 67.0564C109.584 66.8424 109.36 66.6624 109.161 66.4587C108.961 66.2549 108.787 66.0307 108.581 65.8372C108.374 65.6436 108.135 65.4772 107.918 65.2904C107.701 65.1036 107.436 64.9745 107.208 64.7979C106.98 64.6213 106.784 64.4141 106.549 64.2477C106.313 64.0813 106.049 63.959 105.806 63.8062C105.563 63.6534 105.364 63.436 105.11 63.2934C104.857 63.1507 104.61 63.0047 104.353 62.8689C104.096 62.733 103.824 62.6311 103.56 62.5089C103.295 62.3866 103.031 62.2677 102.763 62.1557C102.495 62.0436 102.205 61.9791 101.933 61.8772C101.661 61.7753 101.379 61.704 101.1 61.6157C100.821 61.5274 100.557 61.4017 100.278 61.3236C99.9986 61.2455 99.7197 61.147 99.4335 61.0825C99.1473 61.0179 98.8611 60.9636 98.5713 60.9092C98.2814 60.8549 97.9916 60.8141 97.7018 60.77C97.412 60.7258 97.1149 60.7326 96.8215 60.7021C96.528 60.6715 96.2382 60.6443 95.9447 60.6274C95.6549 60.6104 95.3651 60.59 95.0753 60.5866C94.7855 60.5832 94.4956 60.5934 94.2058 60.6036C93.916 60.6138 93.6226 60.5764 93.3327 60.6002C93.0429 60.624 92.7567 60.6885 92.4705 60.7258C92.1843 60.7632 91.9017 60.8243 91.6155 60.8753C91.3293 60.9262 91.0468 60.9806 90.7642 61.0451C90.4816 61.1096 90.1954 61.1606 89.9201 61.2387C89.6448 61.3168 89.3694 61.4119 89.0977 61.5036C88.826 61.5953 88.5652 61.7175 88.2971 61.8194C88.029 61.9213 87.7682 62.0368 87.5073 62.1523C87.2465 62.2677 86.9965 62.4036 86.7393 62.5292C86.4821 62.6549 86.2249 62.7738 85.9749 62.9164C85.7249 63.059 85.4532 63.1609 85.2141 63.3138C84.975 63.4666 84.7613 63.6568 84.5294 63.8198C84.2975 63.9828 84.0766 64.156 83.8556 64.3326C83.6346 64.5092 83.4027 64.6689 83.189 64.8556C82.9752 65.0424 82.7361 65.1987 82.5333 65.3956C82.3304 65.5926 82.1203 65.8032 81.9246 66.0104C81.729 66.2175 81.5551 66.4519 81.3703 66.6692C81.1856 66.8866 81.0588 67.1481 80.8885 67.3756C80.7183 67.6032 80.519 67.8137 80.3596 68.0481C80.2002 68.2824 80.0698 68.5337 79.9249 68.7749C79.78 69.016 79.5843 69.2368 79.4503 69.4847C79.3162 69.7326 79.251 70.0145 79.1315 70.2692C79.0119 70.5239 78.9032 70.782 78.7946 71.0402C78.6859 71.2983 78.541 71.5462 78.4468 71.8111C78.3526 72.076 78.3236 72.3579 78.2439 72.6262C78.1642 72.8945 78.0809 73.1594 78.012 73.4311C77.9432 73.7028 77.8418 73.9643 77.7838 74.2394C77.7258 74.5145 77.6316 74.7794 77.5846 75.0545C77.5375 75.3296 77.5266 75.6081 77.4867 75.8866C77.4469 76.165 77.4578 76.4435 77.4288 76.722C77.3998 77.0005 77.3128 77.2722 77.2911 77.5507C77.273 77.8054 77.331 78.0669 77.331 78.3284C77.331 78.5899 77.331 78.8413 77.3455 79.1028C77.3599 79.3643 77.3455 79.619 77.3744 79.8771C77.4034 80.1352 77.4252 80.3899 77.4686 80.648C77.5121 80.9062 77.5193 81.1643 77.5737 81.419C77.628 81.6737 77.7476 81.9114 77.8092 82.1662C77.8708 82.4209 77.8816 82.6824 77.9541 82.9337C78.0265 83.185 78.1425 83.4228 78.2222 83.6707V83.6741Z" fill="#EBBEA7"/>
<path d="M117.073 85.9828C116.87 86.1865 116.667 86.3971 116.439 86.5771C116.218 86.7503 115.946 86.8963 115.671 87.039C115.413 87.1714 115.123 87.2665 114.834 87.3684C114.544 87.4703 114.272 87.5756 113.975 87.6401C113.678 87.7046 113.381 87.7658 113.08 87.7963C112.78 87.8269 112.472 87.776 112.171 87.7726C111.87 87.7692 111.559 87.7963 111.265 87.759C110.972 87.7216 110.66 87.6537 110.381 87.5722C110.084 87.4839 109.798 87.382 109.544 87.2428C109.291 87.1035 109.041 86.9133 108.834 86.713C108.628 86.5126 108.447 86.2816 108.313 86.0201C108.19 85.779 108.135 85.4971 108.088 85.2016C108.048 84.9401 108.023 84.6616 108.048 84.356C108.07 84.1081 108.15 83.8499 108.2 83.5749C108.244 83.3235 108.244 83.0518 108.309 82.7835C108.371 82.5322 108.432 82.2707 108.508 82.0092C108.584 81.7477 108.646 81.4964 108.737 81.2383C108.827 80.9801 108.983 80.7594 109.088 80.5115C109.193 80.2635 109.291 80.0156 109.407 79.7711C109.523 79.5266 109.66 79.2956 109.791 79.0613C109.921 78.8269 109.994 78.5552 110.135 78.3277C110.276 78.1002 110.515 77.9202 110.671 77.7028C110.827 77.4854 110.961 77.2409 111.138 77.0371C111.316 76.8334 111.486 76.6058 111.685 76.4224C111.885 76.239 112.109 76.0556 112.33 75.896C112.551 75.7364 112.834 75.6379 113.08 75.5156C113.327 75.3934 113.584 75.2643 113.852 75.1896C114.142 75.1115 114.442 75.047 114.743 75.03C115.044 75.013 115.352 75.03 115.652 75.0707C115.953 75.1115 116.236 75.2236 116.518 75.3254C116.801 75.4273 117.073 75.5462 117.326 75.7024C117.598 75.8688 117.884 76.0285 118.105 76.2458C118.326 76.4632 118.533 76.7111 118.703 76.9692C118.873 77.2273 118.949 77.533 119.069 77.8149C119.188 78.0968 119.348 78.3685 119.416 78.6639C119.485 78.9594 119.456 79.2685 119.478 79.5707C119.5 79.873 119.525 80.1718 119.503 80.4741C119.482 80.7764 119.438 81.0752 119.384 81.3741C119.33 81.673 119.282 81.9718 119.195 82.2639C119.116 82.5356 119.007 82.8005 118.906 83.0688C118.804 83.3371 118.659 83.585 118.533 83.8398C118.406 84.0945 118.283 84.356 118.13 84.5971C117.978 84.8382 117.837 85.093 117.656 85.3205C117.475 85.5481 117.29 85.7756 117.083 85.9828H117.073Z" fill="#EBBEA7"/>
<path d="M116.48 80.9721C116.104 81.0706 115.73 81.1148 115.372 81.2608C114.984 81.4204 114.597 81.4748 114.191 81.5801C113.397 81.7872 112.637 82.0725 111.854 82.3034C111.184 82.5004 110.898 81.5155 111.564 81.3219C112.347 81.091 113.111 80.8057 113.901 80.5985C114.263 80.5035 114.622 80.4627 114.973 80.3201C115.375 80.157 115.778 80.0993 116.194 79.9906C116.868 79.8106 117.158 80.7955 116.484 80.9721H116.48Z" fill="#A55535"/>
<path d="M87.2184 80.8561C87.1133 80.7949 87.2727 80.8561 87.2075 80.8459C87.1387 80.8357 87.1351 80.8425 87.2039 80.8391C87.1604 80.8391 87.0626 80.8628 87.1713 80.8323C87.1423 80.8391 87.1133 80.8459 87.0844 80.8527C86.9648 80.8832 87.1532 80.8051 87.0481 80.8662C87.0336 80.873 86.9394 80.941 86.9938 80.8968C87.0481 80.8527 86.9431 80.9477 86.9467 80.9444C86.8779 81.0055 86.9503 80.9206 86.9286 80.9647C86.9105 80.9953 86.8887 81.0259 86.8706 81.0564C86.8199 81.1345 86.8742 81.0191 86.867 81.07C86.8597 81.104 86.8453 81.1379 86.838 81.1719C86.838 81.1719 86.8163 81.301 86.8235 81.2296C86.8308 81.1583 86.8235 81.2738 86.8235 81.2908C86.8235 81.3417 86.8235 81.3927 86.8235 81.4436C86.8235 81.4776 86.8271 81.5115 86.8308 81.5455C86.8453 81.7051 86.809 81.4538 86.8416 81.6134C86.8742 81.773 86.9068 81.9496 86.9757 82.1059C86.9467 82.0413 86.9865 82.1228 87.001 82.1466C87.0228 82.184 87.0445 82.2179 87.0662 82.2519C87.088 82.2825 87.1097 82.313 87.1315 82.3436C87.1641 82.3911 87.0807 82.296 87.1496 82.3606C87.2075 82.4149 87.2619 82.4693 87.3235 82.5202C87.4394 82.6153 87.2474 82.4726 87.3706 82.5542C87.4032 82.5745 87.4358 82.5983 87.4684 82.6187C87.5372 82.6594 87.606 82.7002 87.6785 82.7342C87.7147 82.7511 87.7799 82.7715 87.7075 82.7477C87.7546 82.7613 87.8017 82.7749 87.8524 82.7885C88.1277 82.853 88.3197 83.1587 88.2328 83.4168C88.1386 83.6851 87.8596 83.8413 87.5626 83.7734C87.0952 83.6681 86.6206 83.3625 86.3199 83.016C85.9504 82.5915 85.7946 82.0855 85.7439 81.5455C85.6968 81.0598 85.8345 80.5368 86.2185 80.1904C86.6279 79.8202 87.2691 79.6911 87.7691 79.973C88.0118 80.1089 88.1241 80.4383 87.9647 80.6693C87.8053 80.9002 87.4829 80.9987 87.222 80.8527L87.2184 80.8561Z" fill="#2B2927"/>
<path d="M94.5299 84.6342C94.903 84.9908 95.2472 85.4051 95.566 85.8025C95.8848 86.1998 96.171 86.6176 96.3558 87.0828C96.5405 87.5481 96.6927 88.0066 96.834 88.4787C96.9934 89.0085 97.0586 89.5043 97.0586 90.0545C97.0586 90.4926 96.334 90.4926 96.334 90.0545C96.334 89.8066 96.3377 89.5553 96.3051 89.3074C96.2761 89.0866 96.2 88.8726 96.1348 88.6587C95.9971 88.2104 95.8486 87.7757 95.6819 87.3342C95.5153 86.8926 95.2436 86.5293 94.961 86.176C94.6784 85.8228 94.356 85.4357 94.0155 85.113C93.6749 84.7904 94.2002 84.3217 94.5263 84.6342H94.5299Z" fill="#BC7F6C"/>
<path d="M101.011 79.0909C101.235 79.0909 101.46 79.0909 101.684 79.0909C101.713 79.0909 101.742 79.0909 101.771 79.0875C101.865 79.0637 101.8 79.0841 101.771 79.0875C101.822 79.0739 101.88 79.0705 101.931 79.0637C102.065 79.0399 102.199 79.0195 102.333 79.0195C102.521 79.0195 102.702 79.1758 102.695 79.3592C102.688 79.5425 102.536 79.6954 102.333 79.6988C102.304 79.6988 102.275 79.6988 102.246 79.7022C102.217 79.7056 102.134 79.7259 102.231 79.7022C102.184 79.7158 102.134 79.7192 102.086 79.7259C101.952 79.7497 101.818 79.7701 101.684 79.7735C101.46 79.7769 101.235 79.7735 101.011 79.7735C100.822 79.7735 100.641 79.6173 100.648 79.4339C100.655 79.2505 100.808 79.0942 101.011 79.0942V79.0909Z" fill="#BC7F6C"/>
<path d="M100.825 80.4982C101.209 80.5424 101.593 80.5661 101.977 80.6137C102.079 80.6239 102.159 80.6442 102.235 80.7122C102.296 80.7699 102.343 80.8684 102.34 80.9533C102.336 81.0382 102.303 81.1333 102.235 81.1944C102.169 81.2522 102.072 81.3065 101.977 81.2929C101.593 81.2488 101.209 81.225 100.825 81.1774C100.724 81.1673 100.644 81.1469 100.568 81.079C100.507 81.0212 100.459 80.9227 100.463 80.8378C100.467 80.7529 100.499 80.6578 100.568 80.5967C100.633 80.539 100.731 80.4846 100.825 80.4982Z" fill="#BC7F6C"/>
<path d="M106.222 72.4336C106.168 72.3589 106.063 72.3181 106.005 72.2468C105.838 72.0362 105.693 71.8087 105.494 71.6253C105.295 71.4419 105.096 71.2585 104.878 71.0921C104.661 70.9257 104.407 70.8068 104.183 70.6472C103.958 70.4876 103.77 70.2906 103.552 70.1242C103.335 69.9578 103.074 69.8389 102.871 69.6589C102.668 69.4789 102.491 69.2683 102.317 69.0646C102.125 68.8404 102.009 68.5619 101.871 68.2902C101.734 68.0185 101.592 67.7638 101.476 67.4921C101.361 67.2204 101.27 66.9283 101.14 66.6702C101.002 66.3917 100.817 66.1506 100.625 65.9366C100.429 65.7159 100.245 65.4748 100.031 65.2608C99.8172 65.0468 99.5963 64.8363 99.3608 64.6461C99.1253 64.4559 98.8717 64.2691 98.6072 64.1197C98.3428 63.9702 98.0457 63.8582 97.7486 63.7665C97.4516 63.6748 97.1473 63.6374 96.8285 63.6204C96.4952 63.6 96.2053 63.6544 95.9409 63.7087C95.6257 63.7733 95.3576 63.865 95.1149 64.011C94.8722 64.157 94.6077 64.32 94.4121 64.5408C94.2164 64.7616 94.1005 65.0163 93.9484 65.2676C93.7962 65.5189 93.6332 65.7431 93.4955 65.9978C93.3578 66.2525 93.2383 66.5072 93.0934 66.7517C92.9485 66.9963 92.7999 67.2476 92.6224 67.4717C92.4594 67.6789 92.2638 67.8623 92.0899 68.0593C91.916 68.2563 91.7674 68.4804 91.5791 68.6638C91.3907 68.8472 91.1733 69.0102 90.9741 69.1868C90.7748 69.3634 90.6045 69.5706 90.3944 69.737C90.1843 69.9034 89.9597 70.0529 89.7423 70.2091C89.525 70.3653 89.2859 70.4944 89.0612 70.6438C88.8366 70.7932 88.6193 70.9529 88.391 71.0921C88.1628 71.2313 87.9092 71.3434 87.6737 71.4725C87.4382 71.6015 87.2028 71.734 86.9637 71.8596C86.7246 71.9853 86.4565 72.0804 86.2065 72.2027C85.9565 72.3249 85.7428 72.5015 85.4892 72.6204C85.2356 72.7393 84.9566 72.797 84.703 72.9091C84.4495 73.0211 84.1995 73.14 83.9459 73.2487C83.6923 73.3574 83.4315 73.4559 83.1742 73.5611C82.917 73.6664 82.6924 73.8362 82.4352 73.9415C82.178 74.0468 81.9135 74.1317 81.6563 74.2404C81.3991 74.3491 81.1527 74.4713 80.8991 74.58C80.6455 74.6887 80.3738 74.7668 80.1202 74.8789C79.8666 74.991 79.6348 75.1404 79.3812 75.2559C79.1276 75.3713 78.8704 75.4732 78.624 75.5921C78.3777 75.7109 78.1241 75.8298 77.8778 75.9555C77.501 76.1525 77.1133 76.38 76.6822 76.3902C76.4142 76.397 76.1642 76.3257 75.9468 76.2034C75.7294 76.0811 75.5483 75.9147 75.3853 75.7177C75.2331 75.5343 75.0665 75.3374 74.9578 75.1166C74.8491 74.8959 74.8056 74.6445 74.7441 74.4238C74.6716 74.1657 74.6209 73.9042 74.5702 73.6427C74.5194 73.3811 74.4434 73.1196 74.418 72.8547C74.3926 72.5898 74.4361 72.3215 74.4325 72.0532C74.4289 71.7849 74.4108 71.5234 74.4289 71.2551C74.447 70.9868 74.4977 70.7287 74.5376 70.4638C74.5774 70.1989 74.5702 69.9306 74.6281 69.6691C74.6861 69.4076 74.8056 69.163 74.8817 68.9049C74.9578 68.6468 74.9868 68.3785 75.081 68.1272C75.1752 67.8759 75.3237 67.6449 75.436 67.4004C75.5483 67.1559 75.657 66.9114 75.7874 66.6736C75.9178 66.4359 76.0084 66.1778 76.1533 65.9502C76.2982 65.7227 76.5047 65.5291 76.6641 65.3083C76.8235 65.0876 76.9793 64.8668 77.1532 64.6563C77.3271 64.4457 77.472 64.2114 77.6604 64.011C77.8488 63.8106 78.0879 63.6578 78.2871 63.4676C78.4972 63.2706 78.6784 63.0465 78.8957 62.8665C79.1131 62.6865 79.3377 62.4963 79.5696 62.3265C79.8014 62.1567 80.0913 62.0582 80.334 61.9019C80.5767 61.7457 80.7868 61.5419 81.0404 61.4027C81.294 61.2635 81.5512 61.1276 81.8121 60.9985C82.0729 60.8695 82.3446 60.7574 82.6127 60.6419C82.8808 60.5265 83.1525 60.4178 83.4242 60.3159C83.6959 60.214 83.9604 60.0816 84.2393 59.9899C84.5183 59.8982 84.7972 59.8065 85.0762 59.725C85.3551 59.6435 85.6413 59.5721 85.9275 59.4974C86.2137 59.4227 86.5036 59.3853 86.7898 59.3174C87.076 59.2495 87.3694 59.2155 87.6556 59.151C87.9418 59.0865 88.2208 58.9982 88.5106 58.937C88.8004 58.8759 89.0757 58.8352 89.3619 58.7774C89.6481 58.7197 89.9198 58.6382 90.206 58.5906C90.4922 58.5431 90.7821 58.5329 91.0683 58.4921C91.3545 58.4514 91.6406 58.4276 91.9305 58.3936C92.2203 58.3597 92.4992 58.2816 92.7891 58.2578C93.0789 58.234 93.3651 58.2103 93.6549 58.1967C93.9447 58.1831 94.2346 58.1797 94.5244 58.1797C94.8142 58.1797 95.104 58.1865 95.3938 58.1967C95.6837 58.2069 95.9735 58.2103 96.2633 58.234C96.5531 58.2578 96.8393 58.3121 97.1219 58.3529C97.4045 58.3936 97.6834 58.4887 97.966 58.5465C98.2486 58.6042 98.5493 58.594 98.8282 58.6687C99.1072 58.7435 99.3499 58.9099 99.6216 59.005C99.8498 59.0865 100.089 59.1408 100.321 59.2223C100.553 59.3038 100.795 59.331 101.034 59.3887C101.321 59.4601 101.607 59.4974 101.9 59.5348C102.194 59.5721 102.473 59.6706 102.766 59.7148C103.049 59.7555 103.339 59.7691 103.614 59.8302C103.889 59.8914 104.168 59.9661 104.44 60.0442C104.712 60.1223 104.972 60.2446 105.233 60.3431C105.494 60.4416 105.769 60.5299 106.027 60.6453C106.284 60.7608 106.552 60.8627 106.798 60.9951C107.045 61.1276 107.262 61.311 107.498 61.4604C107.733 61.6099 107.968 61.7593 108.197 61.9223C108.425 62.0853 108.628 62.2721 108.842 62.4453C109.055 62.6185 109.284 62.7816 109.49 62.9684C109.697 63.1551 109.889 63.3521 110.081 63.5491C110.273 63.7461 110.504 63.9125 110.686 64.1197C110.867 64.3268 111.037 64.5442 111.207 64.7582C111.377 64.9721 111.497 65.22 111.656 65.4442C111.816 65.6683 112.026 65.8585 112.175 66.0861C112.323 66.3136 112.392 66.5853 112.526 66.8231C112.653 67.0472 112.863 67.2374 112.997 67.4751C113.131 67.7129 113.178 67.971 113.305 68.2087C113.432 68.4464 113.624 68.6434 113.743 68.8812C113.863 69.1189 113.95 69.3668 114.055 69.6113C114.16 69.8559 114.236 70.1072 114.323 70.3551C114.41 70.603 114.471 70.8612 114.54 71.1125C114.609 71.3638 114.7 71.6185 114.743 71.8732C114.787 72.1279 114.794 72.3962 114.801 72.6544C114.808 72.9125 114.834 73.1808 114.797 73.4389C114.761 73.697 114.689 73.9517 114.602 74.203C114.515 74.4544 114.37 74.6683 114.232 74.9027C114.102 75.1234 113.953 75.3374 113.765 75.5445C113.595 75.7381 113.464 75.9725 113.269 76.1457C113.073 76.3189 112.874 76.4921 112.66 76.6483C112.446 76.8045 112.211 76.9268 111.986 77.066C111.762 77.2053 111.522 77.3242 111.291 77.4498C111.059 77.5755 110.805 77.6672 110.566 77.7826C110.312 77.9083 110.052 78.0917 109.769 78.146C109.468 78.2038 109.16 78.1596 108.907 78.0034C108.733 77.8947 108.65 77.7045 108.537 77.5415C108.385 77.3174 108.2 77.1136 108.077 76.8725C107.954 76.6313 107.82 76.397 107.719 76.1457C107.617 75.8943 107.548 75.6362 107.461 75.3849C107.374 75.1336 107.302 74.8755 107.215 74.6208C107.128 74.366 107.052 74.1113 106.95 73.8634C106.849 73.6155 106.758 73.3608 106.635 73.123C106.512 72.8853 106.371 72.651 106.215 72.4268L106.222 72.4336Z" fill="#97928C"/>
<path d="M97.1961 66.5718C97.1128 66.4223 97.0005 66.3069 96.8809 66.1846C96.736 66.0318 96.6056 65.8688 96.4679 65.7091C96.2361 65.434 95.9463 65.2778 95.613 65.125C95.2797 64.9722 94.9391 64.8091 94.5624 64.8091C94.3486 64.8091 94.1349 64.8193 93.9211 64.8159C93.7327 64.8125 93.5407 64.7989 93.356 64.8329C93.0698 64.8839 92.7691 64.7582 92.6858 64.4763C92.6133 64.2284 92.7763 63.9023 93.0662 63.848C93.5552 63.7597 94.066 63.7903 94.5624 63.7903C95.113 63.7903 95.6021 63.9906 96.0875 64.2114C96.5295 64.4118 96.9461 64.6427 97.2541 65.0095C97.5403 65.3525 97.9134 65.6718 98.1308 66.0589C98.2685 66.3001 98.196 66.6125 97.9352 66.7552C97.6888 66.891 97.3302 66.8163 97.1925 66.5718H97.1961Z" fill="#97928C"/>
<path d="M95.0179 67.6279C94.3586 67.4343 93.6739 67.4003 92.9892 67.4886C92.6776 67.5294 92.4421 67.6483 92.1668 67.7841C91.8661 67.9335 91.5546 68.0592 91.2792 68.2494C91.0437 68.4124 90.6742 68.2867 90.5366 68.066C90.3735 67.8079 90.4931 67.5328 90.7322 67.3698C91.0293 67.166 91.3626 67.0335 91.685 66.8705C92.0617 66.6803 92.4168 66.5411 92.8443 66.4867C93.6703 66.3849 94.5071 66.4086 95.3077 66.6464C95.5867 66.7279 95.7678 66.9996 95.6881 67.2747C95.6084 67.5498 95.3005 67.7128 95.0179 67.6313V67.6279Z" fill="#97928C"/>
<path d="M94.735 104.689C94.5647 104.533 94.409 104.356 94.2677 104.17C94.1264 103.983 94.0177 103.786 93.9163 103.579C93.8003 103.341 93.7206 103.09 93.6337 102.842C93.5467 102.594 93.4888 102.339 93.4199 102.084C93.3511 101.83 93.2461 101.599 93.1808 101.344C93.1519 101.599 93.141 101.847 93.0758 102.098C93.0106 102.349 92.8693 102.577 92.7715 102.814C92.6737 103.052 92.6048 103.307 92.4744 103.534C92.344 103.762 92.1447 103.945 91.9853 104.156C91.7825 104.418 91.6013 104.703 91.3441 104.92C91.0869 105.138 90.7826 105.301 90.4674 105.436C90.1522 105.572 89.8117 105.654 89.4675 105.664C89.1233 105.674 88.7538 105.65 88.4459 105.501C88.1307 105.348 87.8517 105.104 87.6489 104.825C87.446 104.547 87.3663 104.207 87.2794 103.888C87.2141 103.643 87.1489 103.395 87.1236 103.137C87.0982 102.879 87.1453 102.631 87.1526 102.373C87.1598 102.115 87.1272 101.86 87.1598 101.609C87.1924 101.358 87.196 101.093 87.2395 100.845C87.283 100.597 87.4134 100.349 87.4641 100.104C87.5185 99.8292 87.5329 99.5338 87.6561 99.279C87.7322 99.1194 87.8626 98.9564 88.0293 98.8681C88.2249 98.7662 88.4749 98.8138 88.6922 98.8545C88.9857 98.9055 89.2791 98.9598 89.5726 99.0039C89.866 99.0481 90.1631 99.0888 90.4601 99.1262C90.7572 99.1636 91.0543 99.1907 91.3513 99.2213C91.6484 99.2519 91.9419 99.3028 92.2389 99.33C92.536 99.3572 92.8403 99.3198 93.1374 99.3368C93.4344 99.3538 93.7315 99.4455 94.0286 99.4556C94.3256 99.4658 94.6263 99.4251 94.927 99.4251C95.2277 99.4251 95.5248 99.3979 95.8218 99.3911C96.1189 99.3843 96.4196 99.4285 96.7167 99.4149C97.0137 99.4013 97.3072 99.3266 97.6079 99.3062C97.9086 99.2858 98.2092 99.3402 98.5063 99.313C98.8034 99.2858 99.1004 99.2621 99.3975 99.2247C99.6946 99.1873 99.9772 99.0787 100.274 99.0345C100.571 98.9904 100.861 98.936 101.155 98.8851C101.448 98.8341 101.756 98.8613 102.049 98.8036C102.343 98.7458 102.618 98.627 102.908 98.559C103.162 98.5013 103.39 98.6066 103.556 98.756C103.723 98.9055 103.846 99.1126 103.81 99.3538C103.774 99.6085 103.738 99.8666 103.68 100.121C103.622 100.376 103.56 100.627 103.48 100.875C103.401 101.123 103.245 101.347 103.147 101.585C103.049 101.823 102.966 102.074 102.85 102.305C102.734 102.536 102.6 102.764 102.466 102.988C102.321 103.222 102.187 103.47 102.013 103.694C101.839 103.918 101.665 104.142 101.47 104.343C101.274 104.543 101.046 104.727 100.821 104.903C100.597 105.08 100.358 105.246 100.104 105.382C99.8504 105.518 99.5859 105.654 99.3069 105.739C99.028 105.824 98.7309 105.847 98.4375 105.871C98.1694 105.895 97.9013 105.885 97.6332 105.864C97.3651 105.844 97.0898 105.847 96.829 105.786C96.5681 105.725 96.3363 105.576 96.0935 105.474C95.8508 105.372 95.5755 105.311 95.3509 105.171C95.1263 105.032 94.927 104.856 94.735 104.679V104.689Z" fill="white"/>
<path d="M85.4069 85.6202C85.2475 85.8987 85.1497 86.201 85.0302 86.4964C84.9106 86.7919 84.8237 87.0738 84.7693 87.3828C84.7114 87.7123 84.7222 87.9976 84.7911 88.3236C84.8599 88.6666 84.8961 89.013 84.9976 89.3493C85.1243 89.7704 84.4252 89.9504 84.2984 89.5293C84.1897 89.1659 84.1534 88.7957 84.0774 88.4289C83.994 88.0281 83.994 87.6783 84.0593 87.2742C84.1172 86.9142 84.2223 86.5881 84.3599 86.2485C84.4976 85.9089 84.6027 85.5862 84.7838 85.2772C85.0048 84.8934 85.6315 85.2364 85.4105 85.6202H85.4069Z" fill="#BC7F6C"/>
<path d="M116.486 114.573C116.059 115.204 115.646 115.846 115.301 116.519C115.135 116.848 115.001 117.191 114.823 117.514C114.646 117.836 114.465 118.108 114.316 118.424C114.004 119.093 113.802 119.803 113.541 120.492C113.28 121.182 113.023 121.905 112.82 122.628C112.617 123.352 112.501 124.065 112.305 124.775C112.11 125.485 112.084 126.256 111.903 126.982C111.816 127.329 111.784 127.665 111.744 128.015C111.704 128.365 111.606 128.738 111.588 129.105C111.57 129.512 111.563 129.896 111.479 130.297C111.411 130.64 111.403 130.99 111.378 131.336C111.327 132.08 111.277 132.831 111.266 133.574C111.255 134.318 111.179 135.038 111.15 135.772C111.121 136.505 111.186 137.263 111.171 138.013C111.157 138.764 111.103 139.508 111.081 140.251C111.07 140.618 111.103 140.985 111.095 141.352C111.088 141.718 111.085 142.085 111.103 142.452C111.121 142.819 111.066 143.209 111.063 143.593C111.059 143.977 111.081 144.327 111.088 144.694C111.095 145.06 111.099 145.427 111.095 145.794C111.092 146.161 111.027 146.551 111.019 146.935C111.012 147.319 111.016 147.669 111.008 148.035C111.001 148.402 110.958 148.766 110.914 149.132C110.871 149.499 110.824 149.897 110.827 150.27C110.827 150.668 110.853 151.031 110.748 151.421C110.704 151.578 110.664 151.727 110.661 151.89C110.657 152.08 110.675 152.274 110.661 152.464C110.635 152.855 110.603 153.269 110.519 153.653C110.48 153.826 110.418 153.996 110.382 154.169C110.345 154.342 110.345 154.512 110.331 154.682C110.302 155.069 110.208 155.443 110.132 155.823C109.983 156.557 109.809 157.283 109.617 158.01C109.523 158.367 109.44 158.723 109.342 159.08C109.164 159.715 108.117 159.443 108.295 158.808C108.498 158.088 108.675 157.358 108.857 156.631C109.038 155.904 109.208 155.198 109.259 154.478C109.288 154.084 109.404 153.724 109.48 153.34C109.548 152.994 109.581 152.61 109.577 152.257C109.574 151.856 109.606 151.5 109.708 151.109C109.798 150.763 109.719 150.416 109.744 150.063C109.798 149.316 109.9 148.579 109.922 147.828C109.932 147.448 109.911 147.064 109.94 146.687C109.969 146.31 110.005 145.957 110.005 145.587C110.005 145.217 109.994 144.853 109.994 144.486C109.994 144.12 109.954 143.726 109.983 143.345C110.012 142.965 110.019 142.618 110.001 142.245C109.983 141.871 110.009 141.484 110.009 141.104C110.009 140.723 109.98 140.37 110.009 140.003C110.038 139.637 110.052 139.243 110.067 138.862C110.095 138.135 110.132 137.388 110.067 136.662C110.001 135.935 110.106 135.167 110.143 134.423C110.179 133.68 110.204 132.932 110.251 132.185C110.298 131.418 110.306 130.657 110.454 129.9C110.523 129.557 110.476 129.203 110.519 128.857C110.57 128.48 110.643 128.106 110.679 127.726C110.715 127.346 110.791 126.965 110.878 126.585C110.961 126.228 111.001 125.862 111.063 125.498C111.19 124.758 111.36 124.031 111.519 123.301C111.679 122.571 111.892 121.844 112.146 121.137C112.4 120.431 112.693 119.731 112.918 119.018C113.034 118.648 113.182 118.295 113.349 117.942C113.505 117.612 113.7 117.313 113.874 116.994C114.048 116.675 114.186 116.325 114.352 115.999C114.53 115.653 114.715 115.32 114.928 114.994C115.142 114.668 115.327 114.362 115.537 114.053C115.91 113.503 116.852 114.012 116.475 114.566L116.486 114.573Z" fill="#4E719B"/>
<path d="M93.3914 75.3945C93.7536 75.4353 94.1195 75.4353 94.4818 75.4726C94.8658 75.5134 95.2498 75.5508 95.6302 75.6187C95.9671 75.6798 96.3041 75.707 96.6446 75.7409C97.0359 75.7817 97.3981 75.8972 97.7822 75.9549C98.072 75.9991 98.235 76.3387 98.1625 76.5832C98.0792 76.8719 97.7858 76.9806 97.4923 76.9398C97.1518 76.8889 96.833 76.7802 96.4888 76.7496C96.1447 76.7191 95.7715 76.6851 95.4165 76.6206C95.1049 76.5628 94.797 76.5289 94.4818 76.4983C94.1195 76.4609 93.7536 76.4609 93.3914 76.4202C93.1015 76.3896 92.8479 76.2096 92.8479 75.9108C92.8479 75.6594 93.0979 75.3708 93.3914 75.4013V75.3945Z" fill="#2B2927"/>
<path d="M84.8652 76.0635C84.6225 76.1212 84.3761 76.1552 84.1334 76.2027C84.0102 76.2265 83.8907 76.2571 83.7747 76.2978C83.7421 76.308 83.7095 76.3216 83.6769 76.3318C83.724 76.3114 83.7204 76.3148 83.6588 76.3386C83.6008 76.3623 83.5465 76.3861 83.4885 76.4099C83.2349 76.5186 82.9813 76.6205 82.7133 76.6986C82.4669 76.7699 82.2169 76.831 81.9778 76.9193C81.7134 77.0178 81.3692 76.8106 81.3076 76.5627C81.2352 76.2672 81.4054 76.0431 81.688 75.9344C81.9199 75.8495 82.159 75.7884 82.3981 75.7205C82.5176 75.6865 82.6336 75.6491 82.7495 75.6084C82.6625 75.6423 82.8473 75.5676 82.8654 75.5608C82.9234 75.5371 82.9777 75.5133 83.0357 75.4895C83.2893 75.3808 83.5429 75.2823 83.8182 75.2246C84.0718 75.1703 84.3254 75.1397 84.5754 75.0786C84.8507 75.0106 85.1767 75.1635 85.2456 75.4352C85.3144 75.7069 85.1586 75.9888 84.8652 76.0635Z" fill="#2B2927"/>
<path d="M90.9592 88.2709C91.3504 88.3015 91.7562 88.4169 92.1438 88.2981C92.2525 88.2641 92.325 88.2268 92.3576 88.152C92.4047 88.0434 92.3829 87.9211 92.3394 87.86C92.209 87.6732 91.7272 87.5373 91.4519 87.4728C91.0425 87.3777 90.615 87.2419 90.1911 87.2351C89.3144 87.2181 88.387 87.2758 87.5393 87.5068C87.4089 87.5407 87.311 87.5883 87.2603 87.629C87.2531 87.6358 87.1698 87.7071 87.2096 87.6732C87.2495 87.6392 87.1625 87.7343 87.1915 87.6935C87.2205 87.6528 87.1698 87.7683 87.177 87.7241C87.1842 87.6732 87.1842 87.8668 87.177 87.826C87.1915 87.9109 87.2422 87.9992 87.3074 88.04C87.3799 88.0875 87.5755 88.0773 87.7277 88.0807C87.9849 88.0807 88.2348 88.1249 88.4921 88.1486C88.7601 88.1758 89.0319 88.1724 89.2999 88.186C89.568 88.1996 89.8361 88.2335 90.1078 88.2539C90.3904 88.2743 90.6766 88.2607 90.9592 88.2743C91.2417 88.2879 91.5026 88.4984 91.5026 88.7837C91.5026 89.0486 91.2526 89.3067 90.9592 89.2932C90.6476 89.2796 90.3324 89.2932 90.0209 89.266C89.7093 89.2388 89.3978 89.2083 89.0862 89.1981C88.7746 89.1879 88.4739 89.1641 88.1624 89.1301C87.8907 89.0962 87.6154 89.1132 87.3436 89.0826C86.735 89.0181 86.2459 88.6343 86.1192 88.0603C85.9996 87.5169 86.2496 87.0075 86.7531 86.7222C87.1879 86.4743 87.7566 86.4064 88.2493 86.3351C88.8688 86.2468 89.5173 86.2128 90.1477 86.2196C90.7309 86.2264 91.3323 86.3826 91.8938 86.532C92.4191 86.6713 93.0386 86.9294 93.3067 87.3981C93.6436 87.9822 93.4371 88.743 92.8539 89.1098C92.5786 89.283 92.2416 89.3407 91.9192 89.3645C91.5968 89.3883 91.2345 89.3169 90.9592 89.2966C90.6657 89.2728 90.4158 89.0792 90.4158 88.7871C90.4158 88.529 90.6657 88.2539 90.9592 88.2777V88.2709Z" fill="#A55535"/>
<path d="M92.5077 79.6078C92.7613 79.6587 92.9968 79.764 93.2504 79.8251C93.5039 79.8862 93.7793 79.8828 94.0945 79.9576C94.3625 80.0187 94.6125 80.141 94.877 80.2157C95.1414 80.2904 95.4313 80.3447 95.7066 80.4296C95.9819 80.5145 96.1776 80.7862 96.087 81.0579C96 81.3127 95.7066 81.5028 95.4168 81.4145C95.1523 81.333 94.8806 81.2855 94.6161 81.2108C94.3517 81.1361 94.0836 81.007 93.8046 80.9425C93.5619 80.8847 93.2902 80.8881 92.9859 80.8168C92.7251 80.7557 92.4787 80.647 92.2179 80.5927C91.9389 80.5349 91.7505 80.2191 91.8375 79.9644C91.9317 79.6893 92.207 79.5466 92.5077 79.6078Z" fill="#2B2927"/>
<path d="M84.3695 80.719C84.0326 80.8344 83.6885 80.9227 83.3443 81.0178C83.0001 81.1129 82.6596 81.2182 82.3118 81.2963C82.0365 81.3575 81.7104 81.2148 81.6416 80.9397C81.5728 80.6646 81.7249 80.3794 82.022 80.3114C82.3698 80.2333 82.7103 80.128 83.0545 80.0329C83.3986 79.9378 83.7428 79.8495 84.0797 79.7341C84.3478 79.6424 84.6883 79.836 84.7499 80.0907C84.8188 80.3794 84.6557 80.6171 84.3695 80.719Z" fill="#2B2927"/>
<path d="M111.385 110.271C111.248 110.627 111.132 110.991 110.969 111.341C110.828 111.643 110.715 111.915 110.643 112.237C110.567 112.587 110.418 112.886 110.273 113.212C110.128 113.538 110.063 113.888 109.969 114.224C109.777 114.896 109.632 115.576 109.404 116.241C109.288 116.584 109.23 116.938 109.143 117.291C109.056 117.644 108.929 117.943 108.853 118.279C108.777 118.615 108.694 118.965 108.647 119.315C108.596 119.685 108.491 120.025 108.4 120.385C108.223 121.084 108.187 121.811 107.998 122.511C107.908 122.847 107.897 123.166 107.864 123.509C107.828 123.879 107.705 124.233 107.676 124.603C107.643 124.99 107.618 125.374 107.556 125.758C107.502 126.104 107.451 126.454 107.415 126.8C107.371 127.204 107.39 127.622 107.379 128.03C107.368 128.437 107.328 128.848 107.299 129.256C107.27 129.663 107.274 130.101 107.227 130.526C107.205 130.73 107.179 130.933 107.194 131.141C107.208 131.361 107.245 131.575 107.248 131.796C107.259 132.451 106.172 132.451 106.161 131.796C106.154 131.422 106.085 131.062 106.122 130.689C106.158 130.315 106.176 129.955 106.194 129.585C106.23 128.834 106.321 128.087 106.31 127.333C106.299 126.579 106.491 125.87 106.553 125.133C106.585 124.745 106.6 124.362 106.683 123.978C106.766 123.594 106.774 123.261 106.814 122.891C106.853 122.521 106.977 122.188 107.038 121.832C107.1 121.475 107.176 121.105 107.234 120.741C107.292 120.378 107.364 120.055 107.462 119.712C107.56 119.369 107.582 119.002 107.654 118.646C107.806 117.933 108.042 117.247 108.194 116.533C108.266 116.194 108.393 115.875 108.494 115.542C108.596 115.209 108.694 114.845 108.781 114.496C108.879 114.102 108.98 113.715 109.092 113.324C109.205 112.933 109.407 112.621 109.516 112.254C109.57 112.074 109.599 111.887 109.647 111.707C109.701 111.493 109.795 111.293 109.893 111.096C110.067 110.739 110.19 110.366 110.331 109.999C110.433 109.741 110.701 109.568 111.001 109.642C111.27 109.71 111.48 110.009 111.382 110.271H111.385Z" fill="#4E719B"/>
<path d="M76.3221 115.375C76.5684 115.527 76.8438 115.64 77.0829 115.803C77.322 115.966 77.5067 116.197 77.7422 116.363C77.9777 116.529 78.2421 116.662 78.474 116.835C78.7059 117.008 78.9486 117.168 79.1732 117.348C79.3978 117.528 79.5898 117.742 79.8072 117.929C80.0245 118.115 80.2818 118.261 80.4955 118.452C80.7092 118.642 80.8723 118.883 81.0824 119.077C81.2454 119.229 81.441 119.369 81.5715 119.549C81.7019 119.729 81.8323 119.939 81.8395 120.163C81.8504 120.544 81.5606 120.89 81.2563 121.141C81.0099 121.345 80.7237 121.484 80.4194 121.597C80.1151 121.709 79.8144 121.844 79.4884 121.885C79.1623 121.926 78.829 121.936 78.503 121.926C78.1769 121.916 77.8545 121.838 77.5285 121.807C77.2024 121.777 76.8764 121.763 76.5539 121.736C76.2315 121.709 75.9055 121.651 75.5794 121.658C75.3041 121.664 75.0287 121.688 74.757 121.722C74.4853 121.756 74.21 121.79 73.9455 121.844C73.6811 121.899 73.4347 122.038 73.1666 122.106C72.8986 122.174 72.6232 122.181 72.3588 122.252C72.0943 122.323 71.8407 122.418 71.5762 122.483C71.3118 122.547 71.0509 122.632 70.7865 122.687C70.522 122.741 70.2503 122.789 69.9786 122.823C69.7069 122.857 69.4316 122.823 69.1599 122.826C68.8881 122.829 68.6056 122.897 68.3375 122.867C68.0694 122.836 67.7868 122.792 67.526 122.724C67.2651 122.656 67.0405 122.48 66.8014 122.361C66.5623 122.242 66.2979 122.15 66.0914 121.974C65.8595 121.773 65.6603 121.539 65.5045 121.291C65.3487 121.043 65.2618 120.754 65.1784 120.472C65.0951 120.19 65.0589 119.909 65.048 119.613C65.0371 119.318 65.0915 119.043 65.1458 118.754C65.2002 118.465 65.2581 118.19 65.3704 117.918C65.4827 117.647 65.624 117.392 65.7943 117.151C65.9646 116.91 66.1059 116.635 66.3196 116.424C66.5333 116.214 66.8232 116.078 67.0731 115.901C67.3231 115.724 67.5622 115.548 67.8339 115.402C68.1056 115.256 68.3665 115.1 68.6563 114.984C68.9461 114.869 69.254 114.818 69.5511 114.733C69.8482 114.648 70.138 114.522 70.4423 114.464C70.7176 114.41 71.0075 114.424 71.2864 114.386C71.5654 114.349 71.8443 114.332 72.1269 114.315C72.4095 114.298 72.6884 114.254 72.971 114.254C73.2536 114.254 73.5325 114.291 73.8151 114.315C74.0977 114.339 74.373 114.38 74.652 114.42C74.9309 114.461 75.2244 114.434 75.4961 114.498C75.7678 114.563 76.0359 114.658 76.304 114.74C76.572 114.821 76.8184 114.957 77.0792 115.062" fill="#D6A792"/>
<path d="M61.3665 115.588C61.5839 115.397 61.8048 115.221 62.0258 115.048C62.2468 114.874 62.4787 114.698 62.7105 114.535C62.9424 114.372 63.2032 114.236 63.446 114.087C63.6887 113.937 63.9459 113.805 64.1995 113.669C64.4531 113.533 64.6922 113.37 64.953 113.251C65.2139 113.132 65.4856 113.023 65.7573 112.922C66.029 112.82 66.3007 112.711 66.576 112.626C66.8514 112.541 67.1448 112.49 67.4274 112.426C67.71 112.361 67.9962 112.297 68.2824 112.249C68.5685 112.202 68.8584 112.164 69.1482 112.137C69.438 112.11 69.7278 112.066 70.0213 112.056C70.3147 112.045 70.6009 112.127 70.8944 112.137C71.1878 112.147 71.4776 112.09 71.7711 112.117C72.0645 112.144 72.3471 112.205 72.6369 112.246C72.9267 112.287 73.2274 112.263 73.5136 112.32C73.7998 112.378 74.0643 112.507 74.3469 112.582C74.6294 112.657 74.8975 112.752 75.1765 112.84C75.4591 112.928 75.7344 113.037 76.0133 113.146C76.2923 113.254 76.5676 113.36 76.8321 113.485C77.0966 113.611 77.3501 113.764 77.6074 113.91C77.8646 114.056 78.1689 114.134 78.4116 114.297C78.6543 114.46 78.9152 114.616 79.1434 114.796C79.3717 114.976 79.5709 115.197 79.7846 115.397C79.9984 115.598 80.2049 115.805 80.3933 116.022C80.5817 116.24 80.6867 116.518 80.857 116.749C81.0273 116.98 81.2736 117.167 81.4149 117.415C81.5562 117.663 81.6105 117.948 81.7264 118.21C81.8134 118.403 81.9837 118.597 82.009 118.807C82.0344 119.018 81.9873 119.273 81.8569 119.456C81.625 119.779 81.2881 119.884 80.9838 119.826C80.7121 119.775 80.3969 119.602 80.1179 119.395C79.868 119.211 79.676 118.93 79.455 118.726C79.176 118.468 78.8971 118.271 78.7159 118.152C78.4986 118.006 78.2776 117.87 78.053 117.737C77.8283 117.605 77.611 117.459 77.3719 117.343C77.1328 117.228 76.8828 117.15 76.6401 117.048C76.3974 116.946 76.1727 116.8 75.9228 116.715C75.6728 116.63 75.4011 116.61 75.1439 116.542C74.8867 116.474 74.6403 116.389 74.3795 116.342C74.6476 116.46 74.8939 116.617 75.1511 116.753C75.4083 116.888 75.6764 117.011 75.9264 117.163C76.1764 117.316 76.4553 117.428 76.6944 117.595C76.8792 117.724 77.0712 117.955 77.3175 118.172C77.5168 118.345 77.745 118.525 77.9479 118.739C78.1399 118.94 78.3283 119.154 78.5022 119.374C78.6761 119.595 78.8282 119.84 78.9587 120.074C79.0999 120.332 79.205 120.59 79.2593 120.842C79.3209 121.123 79.339 121.405 79.2485 121.657C79.1615 121.894 78.9731 122.102 78.7051 122.292C78.4913 122.441 78.2341 122.55 77.937 122.557C77.6871 122.56 77.419 122.468 77.1328 122.394C76.8828 122.329 76.6437 122.207 76.3792 122.098C76.1365 122 75.8539 121.952 75.6076 121.83C75.3612 121.708 75.1584 121.531 74.9265 121.399C74.6947 121.266 74.4556 121.123 74.2346 120.988C73.9918 120.835 73.7056 120.767 73.4991 120.634C73.2311 120.458 73.0391 120.257 72.8652 120.145C73.1006 120.298 73.3035 120.495 73.5136 120.679C73.7238 120.862 73.9665 121.018 74.1512 121.229C74.336 121.439 74.47 121.68 74.6222 121.911C74.7744 122.142 74.9229 122.373 75.0424 122.618C75.162 122.862 75.2852 123.11 75.3649 123.372C75.4446 123.633 75.4917 123.902 75.5315 124.166C75.5859 124.513 75.633 124.982 75.3431 125.202C75.0859 125.399 74.6693 125.246 74.3396 125.185C74.0498 125.131 73.7564 125.104 73.4738 125.029C73.1912 124.954 72.905 124.89 72.6261 124.795C72.3471 124.7 72.0863 124.577 71.8146 124.465C71.5428 124.353 71.253 124.282 70.9922 124.153C70.7313 124.024 70.5104 123.83 70.2604 123.684C70.0104 123.538 69.7423 123.453 69.5032 123.29C69.6989 123.453 69.9017 123.586 70.0901 123.759C70.2785 123.932 70.4705 124.109 70.6299 124.306C70.7893 124.503 70.898 124.73 71.0031 124.958C71.1045 125.182 71.1588 125.423 71.1697 125.671C71.1806 125.919 71.1299 126.16 71.032 126.384C70.9342 126.608 70.811 126.832 70.5901 126.982C70.293 127.179 69.9307 127.305 69.5648 127.284C69.1989 127.264 68.8475 127.128 68.5287 126.989C68.2063 126.849 67.8838 126.69 67.5795 126.52C67.2752 126.35 66.9963 126.126 66.6594 126.011C66.3804 125.912 66.087 125.844 65.7935 125.807C65.5001 125.769 65.203 125.827 64.9023 125.834C64.6016 125.841 64.3118 125.854 64.0147 125.878C63.7177 125.902 63.4206 125.899 63.1235 125.916C62.8265 125.932 62.5258 125.96 62.2323 125.953C61.9389 125.946 61.6382 125.888 61.352 125.834C61.0658 125.78 60.7905 125.685 60.5224 125.556C60.247 125.423 60.0297 125.243 59.8087 125.08C59.566 124.903 59.3232 124.754 59.1421 124.547C58.9537 124.329 58.7798 124.102 58.653 123.857C58.5262 123.613 58.4393 123.341 58.3705 123.073C58.3016 122.805 58.2726 122.533 58.2545 122.251C58.2364 121.969 58.2111 121.701 58.24 121.422C58.269 121.144 58.327 120.879 58.3886 120.604C58.4502 120.329 58.5661 120.077 58.653 119.813C58.74 119.548 58.8994 119.313 59.0117 119.059C59.124 118.804 59.153 118.515 59.287 118.267C59.4211 118.019 59.6058 117.799 59.7544 117.564C59.9029 117.33 60.0224 117.062 60.1891 116.841C60.3666 116.606 60.5695 116.403 60.7542 116.202C60.9571 115.982 61.1564 115.778 61.3592 115.598L61.3665 115.588Z" fill="#EBBEA7"/>
<path d="M66.6742 119.766C67.0437 119.984 67.3553 120.225 67.7139 120.466C68.098 120.727 68.4457 121.019 68.8116 121.301C68.9312 121.393 69.0942 121.485 69.2355 121.587C69.4384 121.729 69.5978 121.882 69.7536 122.069C70.0144 122.385 70.3332 122.673 70.6158 122.993C70.8042 123.203 70.8368 123.505 70.6158 123.713C70.4238 123.893 70.0361 123.927 69.8477 123.713C69.5579 123.387 69.2319 123.098 68.9565 122.758C68.8696 122.65 68.75 122.517 68.6305 122.425C68.4675 122.307 68.261 122.191 68.0907 122.062C67.7791 121.824 67.4893 121.566 67.1633 121.346C66.8082 121.104 66.4858 120.856 66.1235 120.646C65.8736 120.5 65.7758 120.191 65.9279 119.95C66.0801 119.709 66.4206 119.62 66.6706 119.766H66.6742Z" fill="#A55535"/>
<path d="M72.3182 120.407C72.1335 120.173 71.8328 119.959 71.6154 119.728C71.5067 119.612 71.4017 119.504 71.2676 119.422C71.1119 119.327 70.9416 119.256 70.7786 119.178C70.4598 119.025 70.1192 118.933 69.7823 118.821C69.4092 118.695 69.0288 118.631 68.6303 118.621C67.9311 118.607 67.9311 117.588 68.6303 117.602C69.1012 117.612 69.5903 117.676 70.0359 117.826C70.4815 117.975 70.9126 118.101 71.3256 118.298C71.7386 118.495 72.0828 118.688 72.3834 119.008C72.6696 119.31 72.9993 119.568 73.2529 119.894C73.4268 120.115 73.2928 120.461 73.0573 120.59C72.7819 120.743 72.4885 120.631 72.3146 120.407H72.3182Z" fill="#A55535"/>
<path d="M74.1037 116.526C74.071 116.513 74.0348 116.499 74.0022 116.486C73.9406 116.462 73.9334 116.459 73.9769 116.475C73.9261 116.455 73.8754 116.435 73.8211 116.418C73.7015 116.374 73.5783 116.333 73.4552 116.295C73.2233 116.231 72.9842 116.197 72.7487 116.149C72.6292 116.126 72.5133 116.102 72.3937 116.082C72.3285 116.071 72.2669 116.058 72.2017 116.048C72.2017 116.048 72.0278 116.027 72.1256 116.037C71.8648 116.017 71.6076 116.044 71.3467 116.044C71.0641 116.044 70.7888 115.81 70.8033 115.535C70.8178 115.26 71.0424 115.025 71.3467 115.025C71.6257 115.025 71.901 114.995 72.18 115.025C72.4589 115.056 72.7524 115.11 73.0349 115.168C73.2885 115.219 73.5457 115.256 73.7957 115.331C74.0892 115.416 74.3681 115.535 74.6507 115.65C74.9115 115.755 74.9912 116.136 74.8463 116.346C74.6724 116.601 74.3826 116.642 74.1037 116.53V116.526Z" fill="#A55535"/>
<path d="M90.9652 108.69C90.9652 108.941 91.063 109.189 91.1898 109.393C91.3166 109.597 91.5159 109.784 91.7405 109.902C91.9651 110.021 92.2187 110.059 92.4868 110.059C92.7548 110.059 92.9939 109.984 93.2113 109.868C93.4287 109.753 93.6678 109.61 93.7982 109.4C93.9286 109.189 93.9648 108.941 93.9648 108.69C93.9648 108.439 93.8888 108.201 93.7656 107.997C93.6424 107.793 93.4251 107.651 93.2041 107.529C92.9831 107.406 92.7585 107.328 92.4904 107.328C92.2223 107.328 91.9796 107.389 91.7622 107.505C91.5448 107.62 91.3238 107.776 91.1934 107.984C91.063 108.191 90.9652 108.432 90.9652 108.683V108.69Z" fill="white"/>
<path d="M90.9869 114.678C90.9869 114.929 91.121 115.147 91.2478 115.35C91.3746 115.554 91.505 115.789 91.7296 115.911C91.9542 116.033 92.2187 116.067 92.4868 116.067C92.7548 116.067 92.9976 115.975 93.2113 115.856C93.4251 115.738 93.6424 115.585 93.7728 115.374C93.9033 115.164 93.9648 114.929 93.9648 114.678C93.9648 114.427 93.9177 114.172 93.7909 113.972C93.6642 113.771 93.4251 113.635 93.2004 113.513C92.9758 113.391 92.7512 113.262 92.4831 113.262C92.215 113.262 91.9651 113.367 91.7513 113.486C91.5376 113.605 91.313 113.764 91.1862 113.972C91.0594 114.179 90.9833 114.423 90.9833 114.675L90.9869 114.678Z" fill="white"/>
<path d="M91.0608 120.664C91.0608 120.916 91.126 121.129 91.2492 121.333C91.3724 121.537 91.539 121.717 91.7636 121.839C91.9882 121.962 92.2165 122.002 92.4882 122.002C92.7599 122.002 93.0062 121.975 93.22 121.856C93.4337 121.737 93.5967 121.547 93.7272 121.337C93.8576 121.126 93.9844 120.916 93.9844 120.664C93.9844 120.413 93.9155 120.162 93.7887 119.958C93.6619 119.754 93.4482 119.588 93.2236 119.465C92.999 119.343 92.7526 119.234 92.4845 119.234C92.2165 119.234 91.9774 119.374 91.7636 119.492C91.5499 119.611 91.3687 119.781 91.2383 119.992C91.1079 120.202 91.0572 120.413 91.0572 120.668L91.0608 120.664Z" fill="white"/>
<path d="M60.8752 106.061C60.4333 106.157 59.9877 106.326 59.5674 106.489C59.1472 106.652 58.774 106.944 58.4154 107.206C58.0567 107.467 57.756 107.783 57.4517 108.106C57.1474 108.429 56.8612 108.741 56.6185 109.108C56.3758 109.475 56.1004 109.828 55.8686 110.201C55.6041 110.626 55.3541 111.061 55.1114 111.499C54.9085 111.859 54.6948 112.202 54.5426 112.586C54.4593 112.796 54.3724 113.003 54.2528 113.2C54.1514 113.367 54.0355 113.526 53.9594 113.706C53.8579 113.944 53.7493 114.185 53.6696 114.433C53.5899 114.681 53.5681 114.926 53.4884 115.167C53.3181 115.693 53.1298 116.209 52.9849 116.739C52.811 117.374 51.764 117.106 51.9379 116.467C52.0719 115.975 52.2313 115.493 52.4016 115.01C52.474 114.803 52.5175 114.593 52.5646 114.379C52.619 114.131 52.7204 113.9 52.8146 113.666C52.9052 113.445 52.9885 113.221 53.108 113.013C53.2167 112.827 53.3508 112.653 53.4377 112.456C53.6333 112.018 53.8145 111.597 54.0608 111.183C54.3072 110.769 54.5463 110.327 54.8035 109.903C55.0607 109.478 55.3469 109.094 55.6222 108.69C55.8976 108.286 56.1874 107.912 56.5315 107.552C56.8757 107.192 57.1836 106.843 57.5749 106.544C57.9988 106.221 58.448 105.864 58.9443 105.64C59.2051 105.521 59.4805 105.437 59.7522 105.341C60.0239 105.246 60.3028 105.138 60.5927 105.077C60.8825 105.015 61.1796 105.158 61.2629 105.433C61.339 105.691 61.1723 105.997 60.8825 106.061H60.8752Z" fill="#D3CAC2"/>
<path d="M52.9997 107.535C52.8729 107.732 52.728 107.916 52.5939 108.109C52.4454 108.327 52.3294 108.554 52.2027 108.782C51.9744 109.189 51.6665 109.549 51.4238 109.954C51.1702 110.378 50.9637 110.823 50.7209 111.251C50.605 111.455 50.4637 111.645 50.3587 111.852C50.2536 112.059 50.2029 112.304 50.1159 112.528C49.9276 112.997 49.7247 113.469 49.5001 113.92C49.2863 114.348 49.2791 114.827 49.0979 115.269C48.9168 115.71 48.8443 116.152 48.7864 116.63C48.7574 116.858 48.7538 117.089 48.732 117.316C48.7103 117.571 48.6668 117.823 48.656 118.077C48.6415 118.383 48.6632 118.689 48.6813 118.994C48.6958 119.246 48.6886 119.51 48.7357 119.758C48.7828 120.006 48.9059 120.258 48.9711 120.512C49.04 120.787 49.0581 121.069 49.1487 121.341C49.3588 121.969 48.3082 122.238 48.1017 121.613C48.0184 121.365 48.0002 121.11 47.9423 120.859C47.8843 120.607 47.7756 120.37 47.714 120.122C47.5909 119.626 47.5945 119.083 47.5764 118.573C47.5583 118.064 47.638 117.534 47.6742 117.007C47.7104 116.481 47.7539 115.958 47.8807 115.466C47.9423 115.228 48.0654 115.01 48.1415 114.776C48.2212 114.532 48.2466 114.273 48.3118 114.026C48.377 113.778 48.5038 113.533 48.6197 113.299C48.7284 113.085 48.8117 112.861 48.9059 112.64C49.1088 112.161 49.2392 111.645 49.5073 111.197C49.6341 110.983 49.7718 110.779 49.8841 110.561C50.0073 110.32 50.1232 110.072 50.2572 109.838C50.3913 109.604 50.5398 109.346 50.692 109.108C50.8296 108.897 50.9999 108.707 51.1376 108.497C51.2897 108.255 51.4093 107.997 51.5578 107.756C51.7136 107.501 51.9056 107.267 52.0686 107.016C52.4309 106.455 53.3728 106.968 53.0069 107.529L52.9997 107.535Z" fill="#D3CAC2"/>
</g>
<g clip-path="url(#clip1_1824_28362)">
<path d="M53.8937 87.9283C53.8937 87.9283 53.9177 87.9283 53.9311 87.9283L59.6217 87.4197C59.8408 87.3996 60.0039 87.2167 59.9825 87.0087C59.9611 86.8007 59.766 86.6479 59.5441 86.6704L54.2011 87.1465L52.6562 81.1128C52.6241 80.9825 52.5198 80.8797 52.3835 80.8396L43.4428 78.3013C43.2316 78.2412 43.0071 78.354 42.9429 78.5519C42.8788 78.7499 42.9991 78.9603 43.2102 79.0205L51.9318 81.4986L53.5035 87.6402C53.5462 87.8105 53.7093 87.9283 53.8937 87.9283Z" fill="#785B4E"/>
<path d="M48.745 92.7548C48.7637 92.7548 48.7824 92.7548 48.8011 92.7498L56.3867 91.7325C56.6059 91.7024 56.7583 91.512 56.7262 91.3065C56.6941 91.101 56.491 90.9582 56.2718 90.9883L48.9268 91.973L46.3581 88.6028C46.2566 88.4675 46.0721 88.4124 45.9038 88.465L38.5881 90.7502C38.3769 90.8154 38.2647 91.0284 38.3342 91.2263C38.4037 91.4243 38.6309 91.5295 38.842 91.4644L45.877 89.2668L48.4136 92.5969C48.4884 92.6972 48.6114 92.7548 48.7397 92.7548H48.745Z" fill="#785B4E"/>
<path d="M47.3907 104.185C47.5217 104.185 47.65 104.124 47.7275 104.012L50.6489 99.7795L58.6809 96.0159C58.8787 95.9232 58.9589 95.6977 58.86 95.5123C58.7611 95.3269 58.5205 95.2517 58.3227 95.3444L50.1945 99.1556C50.1304 99.1857 50.0769 99.2308 50.0368 99.2884L47.0566 103.606C46.9363 103.781 46.9898 104.012 47.1769 104.124C47.2437 104.165 47.3185 104.185 47.3934 104.185H47.3907Z" fill="#785B4E"/>
</g>
<defs>
<clipPath id="clip0_1824_28362">
<rect width="86.432" height="110" fill="white" transform="matrix(-1 0 0 1 134 50)"/>
</clipPath>
<clipPath id="clip1_1824_28362">
<rect width="21.6663" height="25.8991" fill="white" transform="matrix(-1 0 0 1 59.9844 78.2852)"/>
</clipPath>
</defs>
</svg>
